<?xml version="1.0" encoding="utf-8" standalone="yes"?>
<!DOCTYPE svg PUBLIC "-//W3C//DTD SVG 1.1//EN" "http://www.w3.org/Graphics/SVG/1.1/DTD/svg11.dtd">
<svg width="1044" height="913" viewBox="0 0 1044 913" style="fill:none;stroke:none;fill-rule:evenodd;clip-rule:evenodd;stroke-linecap:round;stroke-linejoin:round;stroke-miterlimit:1.5;" version="1.1" xmlns="http://www.w3.org/2000/svg" xmlns:xlink="http://www.w3.org/1999/xlink"><style class="text-font-style fontImports" data-font-family="Roboto">@import url(https://fonts.googleapis.com/css2?family=Roboto:wght@400;700&amp;amp;display=block);</style><rect id="" x="0" y="0" width="1044" height="912" style="fill: #ffffff;"></rect><g id="items" style="isolation: isolate"><g id="blend" style="mix-blend-mode: normal"><g id="g-root-tf_v4ver0aboutl-fill" data-item-order="-1428192"><g id="tf_v4ver0aboutl-fill" stroke="none" fill="#ffffff"><g><path d="M 0 0L 1044 0L 1044 912L 0 912Z"></path></g></g></g><g id="g-root-cp_6_g-6_9my4abgemd-fill" data-item-order="-812725" transform="translate(350, 190.699951171875)"></g><g id="g-root-cp_5_g-5_1q5qoocabgf7y-fill" data-item-order="-812721" transform="translate(456.4410400390625, 229.501953125)"></g><g id="g-root-cp_4_g-4_1lpx6jwabgg07-fill" data-item-order="-812717" transform="translate(350.4410095214844, 329.0001220703125)"></g><g id="g-root-cp_3_g-3_1lpx6jwabgg08-fill" data-item-order="-812713" transform="translate(456.4410400390625, 428.5020751953125)"></g><g id="g-root-cp_2_g-2_1ha3ofgabggsh-fill" data-item-order="-812709" transform="translate(350.4410095214844, 528.0001220703125)"></g><g id="g-root-cp_1_g-1_1ha3ofgabggsi-fill" data-item-order="-812705" transform="translate(456.22100830078125, 627.5020751953125)"></g><g id="g-root-cp_1_number_18f359oabgeff-fill" data-item-order="-812691" transform="translate(698, 698.0001220703125)"></g><g id="g-root-cp_2_number_1_13z9n58abgf7o-fill" data-item-order="-812673" transform="translate(266, 602.0001220703125)"></g><g id="g-root-cp_3_number_2_13z9n58abgf7p-fill" data-item-order="-812655" transform="translate(698, 500.0001220703125)"></g><g id="g-root-cp_4_number_3_v3mmwcabgg0e-fill" data-item-order="-812637" transform="translate(266, 404.0001220703125)"></g><g id="g-root-cp_5_number_4_v3mmwcabgg0f-fill" data-item-order="-812619" transform="translate(698, 296.0001220703125)"></g><g id="g-root-cp_6_number_5_qnt4rwabggso-fill" data-item-order="-812601" transform="translate(266, 206)"></g><g id="g-root-tx_serverve_meuxrgabq8ea-fill" data-item-order="0" transform="translate(782, 296.0001220703125)"><g id="tx_serverve_meuxrgabq8ea-fill" stroke="none" fill="#e0cb15"><g><text style="font: 15px Roboto, sans-serif; white-space: pre;" font-size="15px" font-family="Roboto, sans-serif"><tspan x="12" y="30.5" dominant-baseline="ideographic">Server Verification</tspan></text></g></g></g><g id="g-root-ic_desk_8wj7fwabq9zh-fill" data-item-order="0" transform="translate(386, 320.0001220703125)"></g><g id="g-root-tx_theserve_dj7xikabq96z-fill" data-item-order="0" transform="translate(782, 332.0001220703125)"><g id="tx_theserve_dj7xikabq96z-fill" stroke="none" fill="#484848"><g><text style="font: 15px Roboto, sans-serif; white-space: pre;" font-size="15px" font-family="Roboto, sans-serif"><tspan x="12" y="30.5" dominant-baseline="ideographic">The server verifies the </tspan><tspan x="12" y="48.5" dominant-baseline="ideographic">signature using the stored </tspan><tspan x="12" y="66.5" dominant-baseline="ideographic">public key.</tspan></text></g></g></g><g id="g-root-tx_browsers_m7zpt8abq8ej-fill" data-item-order="0" transform="translate(62, 404.0001220703125)"><g id="tx_browsers_m7zpt8abq8ej-fill" stroke="none" fill="#92bd39"><g><text style="font: 15px Roboto, sans-serif; white-space: pre;" font-size="15px" font-family="Roboto, sans-serif"><tspan x="16.6" y="30.5" dominant-baseline="ideographic">Browser Sends Credential</tspan></text></g></g></g><g id="g-root-tx_theserve_8x5ld8abgg03-fill" data-item-order="0" transform="translate(782, 734.0001220703125)"><g id="tx_theserve_8x5ld8abgg03-fill" stroke="none" fill="#484848"><g><text style="font: 15px Roboto, sans-serif; white-space: pre;" font-size="15px" font-family="Roboto, sans-serif"><tspan x="12" y="30.5" dominant-baseline="ideographic">The server initiates </tspan><tspan x="12" y="48.5" dominant-baseline="ideographic">authentication by sending </tspan><tspan x="12" y="66.5" dominant-baseline="ideographic">a challenge and RP info.</tspan></text></g></g></g><g id="g-root-tx_4_zpoz1oabq9z4-fill" data-item-order="0" transform="translate(284, 416.0001220703125)"><g id="tx_4_zpoz1oabq9z4-fill" stroke="none" fill="#484848"><g><text style="font: 30px Roboto, sans-serif; white-space: pre;" font-size="30px" font-family="Roboto, sans-serif"><tspan x="13.57" y="45.5" dominant-baseline="ideographic">4</tspan></text></g></g></g><g id="g-root-ic_key_13z9n58abt3pq-fill" data-item-order="0" transform="translate(566, 416.0001220703125)"></g><g id="g-root-tx_thebrows_hs67osabq96s-fill" data-item-order="0" transform="translate(62, 440.0001220703125)"><g id="tx_thebrows_hs67osabq96s-fill" stroke="none" fill="#484848"><g><text style="font: 15px Roboto, sans-serif; white-space: pre;" font-size="15px" font-family="Roboto, sans-serif"><tspan x="36.4" y="27.5" dominant-baseline="ideographic">The browser sends the </tspan><tspan x="30.22" y="45.5" dominant-baseline="ideographic">signed credential, along </tspan><tspan x="16.95" y="63.5" dominant-baseline="ideographic">with authenticator data to </tspan><tspan x="118.98" y="81.5" dominant-baseline="ideographic">the server.</tspan></text></g></g></g><g id="g-root-tx_theauthe_4hc6ekabt1jh-fill" data-item-order="0" transform="translate(74, 242.0001220703125)"><g id="tx_theauthe_4hc6ekabt1jh-fill" stroke="none" fill="#484848"><g><text style="font: 15px Roboto, sans-serif; white-space: pre;" font-size="15px" font-family="Roboto, sans-serif"><tspan x="51.31" y="30.5" dominant-baseline="ideographic">The authentication </tspan><tspan x="20.94" y="48.5" dominant-baseline="ideographic">process is successfully </tspan><tspan x="101.13" y="66.5" dominant-baseline="ideographic">completed.</tspan></text></g></g></g><g id="g-root-ic_chec_93efe4abq9z8-fill" data-item-order="0" transform="translate(566, 212)"></g><g id="g-root-tx_3_zitr3gabq9zc-fill" data-item-order="0" transform="translate(716, 512.0001220703125)"><g id="tx_3_zitr3gabq9zc-fill" stroke="none" fill="#484848"><g><text style="font: 30px Roboto, sans-serif; white-space: pre;" font-size="30px" font-family="Roboto, sans-serif"><tspan x="13.57" y="45.5" dominant-baseline="ideographic">3</tspan></text></g></g></g><g id="g-root-tx_authenti_1cuwne4abt2x0-fill" data-item-order="0" transform="translate(782, 500.0001220703125)"><g id="tx_authenti_1cuwne4abt2x0-fill" stroke="none" fill="#3cc583"><g><text style="font: 15px Roboto, sans-serif; white-space: pre;" font-size="15px" font-family="Roboto, sans-serif"><tspan x="12" y="30.5" dominant-baseline="ideographic">Authenticator Signature</tspan></text></g></g></g><g id="g-root-tx_6_18gynosac03yk-fill" data-item-order="0" transform="translate(284, 218)"><g id="tx_6_18gynosac03yk-fill" stroke="none" fill="#484848"><g><text style="font: 30px Roboto, sans-serif; white-space: pre;" font-size="30px" font-family="Roboto, sans-serif"><tspan x="13.57" y="45.5" dominant-baseline="ideographic">6</tspan></text></g></g></g><g id="g-root-ic_brow_74uwcabja4i-fill" data-item-order="0" transform="translate(386, 518.0001220703125)"></g><g id="g-root-tx_theauthe_13z9n58abt3pp-fill" data-item-order="0" transform="translate(782, 536.0001220703125)"><g id="tx_theauthe_13z9n58abt3pp-fill" stroke="none" fill="#484848"><g><text style="font: 15px Roboto, sans-serif; white-space: pre;" font-size="15px" font-family="Roboto, sans-serif"><tspan x="12" y="30.5" dominant-baseline="ideographic">The authenticator signs </tspan><tspan x="12" y="48.5" dominant-baseline="ideographic">the challenge using its </tspan><tspan x="12" y="66.5" dominant-baseline="ideographic">private key.</tspan></text></g></g></g><g id="g-root-tx_browsera_dild9oabj8jk-fill" data-item-order="0" transform="translate(122, 602.0001220703125)"><g id="tx_browsera_dild9oabj8jk-fill" stroke="none" fill="#1eabda"><g><text style="font: 15px Roboto, sans-serif; white-space: pre;" font-size="15px" font-family="Roboto, sans-serif"><tspan x="17.13" y="30.5" dominant-baseline="ideographic">Browser API Call</tspan></text></g></g></g><g id="g-root-tx_authenti_4hc6ekabt1jg-fill" data-item-order="0" transform="translate(62, 206)"><g id="tx_authenti_4hc6ekabt1jg-fill" stroke="none" fill="#de8431"><g><text style="font: 15px Roboto, sans-serif; white-space: pre;" font-size="15px" font-family="Roboto, sans-serif"><tspan x="22.58" y="30.5" dominant-baseline="ideographic">Authentication Complete</tspan></text></g></g></g><g id="g-root-tx_2_1q5qoocabt4hu-fill" data-item-order="0" transform="translate(284, 614.0001220703125)"><g id="tx_2_1q5qoocabt4hu-fill" stroke="none" fill="#484848"><g><text style="font: 30px Roboto, sans-serif; white-space: pre;" font-size="30px" font-family="Roboto, sans-serif"><tspan x="13.57" y="45.5" dominant-baseline="ideographic">2</tspan></text></g></g></g><g id="g-root-ic_pc_1il4cabggss-fill" data-item-order="0" transform="translate(566, 614.0001220703125)"></g><g id="g-root-tx_thebrows_4myd0sabj9c9-fill" data-item-order="0" transform="translate(-10, 638.0001220703125)"><g id="tx_thebrows_4myd0sabj9c9-fill" stroke="none" fill="#484848"><g><text style="font: 15px Roboto, sans-serif; white-space: pre;" font-size="15px" font-family="Roboto, sans-serif"><tspan x="44.93" y="30.5" dominant-baseline="ideographic">The browser calls the WebAuthn </tspan><tspan x="18.76" y="48.5" dominant-baseline="ideographic">[navigator.credentials.get()] API with </tspan><tspan x="17.41" y="66.5" dominant-baseline="ideographic">publicKeyCredentialRequestOptions.</tspan></text></g></g></g><g id="g-root-ic_1_1ioa4abt2bq-fill" data-item-order="0" transform="translate(386, 122)"></g><g id="g-root-tx_webauthn_qnt4rwabggsp-fill" data-item-order="0" transform="translate(314, 38)"><g id="tx_webauthn_qnt4rwabggsp-fill" stroke="none" fill="#484848"><g><text style="font: bold 25px Roboto, sans-serif; white-space: pre;" font-weight="bold" font-size="25px" font-family="Roboto, sans-serif"><tspan x="15.39" y="42.5" dominant-baseline="ideographic">WebAuthn Authentication Process</tspan></text></g></g></g><g id="g-root-tx_1_mdlwfgabja4u-fill" data-item-order="0" transform="translate(716, 710.0001220703125)"><g id="tx_1_mdlwfgabja4u-fill" stroke="none" fill="#484848"><g><text style="font: 30px Roboto, sans-serif; white-space: pre;" font-size="30px" font-family="Roboto, sans-serif"><tspan x="13.57" y="45.5" dominant-baseline="ideographic">1</tspan></text></g></g></g><g id="g-root-tx_serverch_dcz3hoabgf7u-fill" data-item-order="0" transform="translate(782, 698.0001220703125)"><g id="tx_serverch_dcz3hoabgf7u-fill" stroke="none" fill="#4e88e7"><g><text style="font: 15px Roboto, sans-serif; white-space: pre;" font-size="15px" font-family="Roboto, sans-serif"><tspan x="12" y="30.5" dominant-baseline="ideographic">Server Challenge</tspan></text></g></g></g><g id="g-root-tx_5_qnt7xoabt2bm-fill" data-item-order="0" transform="translate(716, 308.0001220703125)"><g id="tx_5_qnt7xoabt2bm-fill" stroke="none" fill="#484848"><g><text style="font: 30px Roboto, sans-serif; white-space: pre;" font-size="30px" font-family="Roboto, sans-serif"><tspan x="13.57" y="45.5" dominant-baseline="ideographic">5</tspan></text></g></g></g><g id="g-root-tf_v4ver0aboutl-stroke" data-item-order="-1428192"></g><g id="g-root-cp_6_g-6_9my4abgemd-stroke" data-item-order="-812725" transform="translate(350, 190.699951171875)"><g id="cp_6_g-6_9my4abgemd-stroke" fill="none" stroke-linecap="round" stroke-linejoin="round" stroke-miterlimit="4" stroke="#de8431" stroke-width="2"><g><path d="M 15.3686 45.9603C 11.7895 44.5906 10 42.7953 10 41C 10 39.2047 11.7895 37.4094 15.3686 36.0397L 78.0391 12.0546C 85.1972 9.3151 96.8028 9.3151 103.9609 12.0546L 166.6314 36.0397C 170.2061 37.4077 171.9956 39.2003 172 40.9933C 172 40.9978 172 41.0022 172 41.0067C 171.9956 42.7997 170.2061 44.5923 166.6314 45.9603L 159.2234 48.7955L 116.5 65.1464L 103.9609 69.9454C 96.8028 72.6849 85.1972 72.6849 78.0391 69.9454L 15.3686 45.9603ZM 78.0391 69.9454L 15.3686 45.9603C 11.7895 44.5906 10 42.7953 10 41L 10 61.5C 10 63.2953 11.7895 65.0906 15.3686 66.4603L 78.0391 90.4454C 85.1972 93.1849 96.8028 93.1849 103.9609 90.4454L 116.5 85.6464L 116.5 65.1464L 103.9609 69.9454C 96.8028 72.6849 85.1972 72.6849 78.0391 69.9454ZM 172 41.0067C 171.9956 42.7997 170.2061 44.5923 166.6314 45.9603L 159.2234 48.7955L 172 55.1865L 172 41.0067Z"></path></g></g></g><g id="g-root-cp_5_g-5_1q5qoocabgf7y-stroke" data-item-order="-812721" transform="translate(456.4410400390625, 229.501953125)"><g id="cp_5_g-5_1q5qoocabgf7y-stroke" fill="none" stroke-linecap="round" stroke-linejoin="round" stroke-miterlimit="4" stroke="#e0cb15" stroke-width="2"><g><path d="M 67.2522 77.4884L 67.2522 85.0116L 110.0841 68.7503L 110.0718 61.2269L 67.2522 77.4884ZM 95.7987 54.0837L 52.9791 70.3453L 67.2522 77.4884L 110.0718 61.2269L 95.7987 54.0837ZM 52.9791 62.8221L 52.9791 70.3453L 95.7987 54.0837L 95.7986 46.5607L 52.9791 62.8221ZM 81.5377 39.4174L 38.7059 55.6794L 52.9791 62.8221L 95.7986 46.5607L 81.5377 39.4174ZM 38.6936 48.1558L 38.7059 55.6794L 81.5377 39.4174L 81.5377 31.8946L 38.6936 48.1558ZM 24.4205 41.0132L 34.9136 46.2536L 38.6936 48.1558L 81.5377 31.8946L 67.2523 24.7519L 24.4205 41.0132ZM 24.4205 33.49L 24.4205 41.0132L 67.2523 24.7519L 67.2523 17.2286L 24.4205 33.49ZM 10 26.2859L 24.4205 33.49L 67.2523 17.2286L 52.795 10L 10 26.2859ZM 70.9272 106.4584C 67.5357 105.1604 65.7511 103.4804 65.5733 101.7803C 65.5635 101.6863 65.5586 101.5922 65.5586 101.498C 65.5586 99.7028 67.3481 97.9075 70.9272 96.5377L 81.8723 92.3489L 124.5732 76.0065L 133.5977 72.5527C 140.7558 69.8132 152.3614 69.8132 159.5195 72.5527L 222.19 96.5377C 225.7646 97.9058 227.5542 99.6983 227.5586 101.4914C 227.5586 101.4958 227.5586 101.5003 227.5586 101.5047C 227.5542 103.2978 225.7646 105.0903 222.19 106.4584L 159.5195 130.4434C 152.3614 133.1829 140.7558 133.1829 133.5977 130.4434L 121.5586 125.8358L 78.8092 109.475L 70.9272 106.4584ZM 24.4205 41.0132L 24.4205 33.49L 10 26.2859L 10 46.8091L 65.5719 103.7632L 65.5733 101.7803C 65.5635 101.6863 65.5586 101.5922 65.5586 101.498C 65.5586 99.7028 67.3481 97.9075 70.9272 96.5377L 81.8723 92.3489L 67.2522 85.0116L 67.2522 77.4884L 52.9791 70.3453L 52.9791 62.8221L 38.7059 55.6794L 38.6936 48.1558L 34.9136 46.2536L 24.4205 41.0132ZM 110.0841 68.7503L 67.2522 85.0116L 81.8723 92.3489L 124.5732 76.0065L 110.0841 68.7503ZM 222.19 106.4584L 159.5195 130.4434C 152.3614 133.1829 140.7558 133.1829 133.5977 130.4434L 121.5586 125.8358L 121.5586 146.3358L 133.5977 150.9434C 140.7558 153.6829 152.3614 153.6829 159.5195 150.9434L 222.19 126.9584C 225.7646 125.5903 227.5542 123.7978 227.5586 122.0047L 227.5586 101.5047C 227.5542 103.2978 225.7646 105.0903 222.19 106.4584ZM 65.5733 101.7803L 65.5719 103.7632L 65.5629 116.1146L 78.8092 109.475L 70.9272 106.4584C 67.5357 105.1604 65.7511 103.4804 65.5733 101.7803ZM 227.5586 101.4914L 227.5586 101.5047L 227.5586 101.4914Z"></path></g></g></g><g id="g-root-cp_4_g-4_1lpx6jwabgg07-stroke" data-item-order="-812717" transform="translate(350.4410095214844, 329.0001220703125)"><g id="cp_4_g-4_1lpx6jwabgg07-stroke" fill="none" stroke-linecap="round" stroke-linejoin="round" stroke-miterlimit="4" stroke="#92bd39" stroke-width="2"><g><path d="M 170.3064 77.4884L 170.3064 85.0116L 127.4745 68.7503L 127.4868 61.2269L 170.3064 77.4884ZM 141.7599 54.0837L 184.5795 70.3453L 170.3064 77.4884L 127.4868 61.2269L 141.7599 54.0837ZM 184.5795 62.8221L 184.5795 70.3453L 141.7599 54.0837L 141.76 46.5607L 184.5795 62.8221ZM 156.0209 39.4174L 198.8527 55.6794L 184.5795 62.8221L 141.76 46.5607L 156.0209 39.4174ZM 198.865 48.1558L 198.8527 55.6794L 156.0209 39.4174L 156.0209 31.8946L 198.865 48.1558ZM 213.1382 41.0132L 202.645 46.2536L 198.865 48.1558L 156.0209 31.8946L 170.3064 24.7519L 213.1382 41.0132ZM 213.1382 33.49L 213.1382 41.0132L 170.3064 24.7519L 170.3063 17.2286L 213.1382 33.49ZM 227.5586 26.2859L 213.1382 33.49L 170.3063 17.2286L 184.7636 10L 227.5586 26.2859ZM 166.6314 106.4584C 170.0229 105.1604 171.8075 103.4804 171.9853 101.7803C 171.9951 101.6863 172 101.5922 172 101.498C 172 99.7028 170.2105 97.9075 166.6314 96.5377L 155.6863 92.3489L 112.9854 76.0065L 103.9609 72.5527C 96.8028 69.8132 85.1972 69.8132 78.0391 72.5527L 15.3686 96.5377C 11.794 97.9058 10.0044 99.6983 10 101.4914C 10 101.4958 10 101.5003 10 101.5047C 10.0044 103.2978 11.794 105.0903 15.3686 106.4584L 78.0391 130.4434C 85.1972 133.1829 96.8028 133.1829 103.9609 130.4434L 116 125.8358L 158.7494 109.475L 166.6314 106.4584ZM 213.1382 41.0132L 213.1382 33.49L 227.5586 26.2859L 227.5586 46.8091L 171.9867 103.7632L 171.9853 101.7803C 171.9951 101.6863 172 101.5922 172 101.498C 172 99.7028 170.2105 97.9075 166.6314 96.5377L 155.6863 92.3489L 170.3064 85.0116L 170.3064 77.4884L 184.5795 70.3453L 184.5795 62.8221L 198.8527 55.6794L 198.865 48.1558L 202.645 46.2536L 213.1382 41.0132ZM 127.4745 68.7503L 170.3064 85.0116L 155.6863 92.3489L 112.9854 76.0065L 127.4745 68.7503ZM 15.3686 106.4584L 78.0391 130.4434C 85.1972 133.1829 96.8028 133.1829 103.9609 130.4434L 116 125.8358L 116 146.3358L 103.9609 150.9434C 96.8028 153.6829 85.1972 153.6829 78.0391 150.9434L 15.3686 126.9584C 11.794 125.5903 10.0044 123.7978 10 122.0047L 10 101.5047C 10.0044 103.2978 11.794 105.0903 15.3686 106.4584ZM 171.9867 103.7632L 171.9853 101.7803C 171.8075 103.4804 170.0229 105.1604 166.6314 106.4584L 158.7494 109.475L 171.9957 116.1146L 171.9867 103.7632ZM 10 101.4914L 10 101.5047L 10 101.4914Z"></path></g></g></g><g id="g-root-cp_3_g-3_1lpx6jwabgg08-stroke" data-item-order="-812713" transform="translate(456.4410400390625, 428.5020751953125)"><g id="cp_3_g-3_1lpx6jwabgg08-stroke" fill="none" stroke-linecap="round" stroke-linejoin="round" stroke-miterlimit="4" stroke="#3cc583" stroke-width="2"><g><path d="M 67.2522 77.4884L 67.2522 85.0116L 110.0841 68.7503L 110.0718 61.2269L 67.2522 77.4884ZM 95.7987 54.0837L 52.9791 70.3453L 67.2522 77.4884L 110.0718 61.2269L 95.7987 54.0837ZM 52.9791 62.8221L 52.9791 70.3453L 95.7987 54.0837L 95.7986 46.5607L 52.9791 62.8221ZM 81.5377 39.4174L 38.7059 55.6794L 52.9791 62.8221L 95.7986 46.5607L 81.5377 39.4174ZM 38.6936 48.1558L 38.7059 55.6794L 81.5377 39.4174L 81.5377 31.8946L 38.6936 48.1558ZM 24.4205 41.0132L 34.9136 46.2536L 38.6936 48.1558L 81.5377 31.8946L 67.2523 24.7519L 24.4205 41.0132ZM 24.4205 33.49L 24.4205 41.0132L 67.2523 24.7519L 67.2523 17.2286L 24.4205 33.49ZM 10 26.2859L 24.4205 33.49L 67.2523 17.2286L 52.795 10L 10 26.2859ZM 70.9272 106.4584C 67.5357 105.1604 65.7511 103.4804 65.5733 101.7803C 65.5635 101.6863 65.5586 101.5922 65.5586 101.498C 65.5586 99.7028 67.3481 97.9075 70.9272 96.5377L 81.8723 92.3489L 124.5732 76.0065L 133.5977 72.5527C 140.7558 69.8132 152.3614 69.8132 159.5195 72.5527L 222.19 96.5377C 225.7646 97.9058 227.5542 99.6983 227.5586 101.4914C 227.5586 101.4958 227.5586 101.5003 227.5586 101.5047C 227.5542 103.2978 225.7646 105.0903 222.19 106.4584L 159.5195 130.4434C 152.3614 133.1829 140.7558 133.1829 133.5977 130.4434L 121.5586 125.8358L 78.8092 109.475L 70.9272 106.4584ZM 24.4205 41.0132L 24.4205 33.49L 10 26.2859L 10 46.8091L 65.5719 103.7632L 65.5733 101.7803C 65.5635 101.6863 65.5586 101.5922 65.5586 101.498C 65.5586 99.7028 67.3481 97.9075 70.9272 96.5377L 81.8723 92.3489L 67.2522 85.0116L 67.2522 77.4884L 52.9791 70.3453L 52.9791 62.8221L 38.7059 55.6794L 38.6936 48.1558L 34.9136 46.2536L 24.4205 41.0132ZM 110.0841 68.7503L 67.2522 85.0116L 81.8723 92.3489L 124.5732 76.0065L 110.0841 68.7503ZM 222.19 106.4584L 159.5195 130.4434C 152.3614 133.1829 140.7558 133.1829 133.5977 130.4434L 121.5586 125.8358L 121.5586 146.3358L 133.5977 150.9434C 140.7558 153.6829 152.3614 153.6829 159.5195 150.9434L 222.19 126.9584C 225.7646 125.5903 227.5542 123.7978 227.5586 122.0047L 227.5586 101.5047C 227.5542 103.2978 225.7646 105.0903 222.19 106.4584ZM 65.5733 101.7803L 65.5719 103.7632L 65.5629 116.1146L 78.8092 109.475L 70.9272 106.4584C 67.5357 105.1604 65.7511 103.4804 65.5733 101.7803ZM 227.5586 101.4914L 227.5586 101.5047L 227.5586 101.4914Z"></path></g></g></g><g id="g-root-cp_2_g-2_1ha3ofgabggsh-stroke" data-item-order="-812709" transform="translate(350.4410095214844, 528.0001220703125)"><g id="cp_2_g-2_1ha3ofgabggsh-stroke" fill="none" stroke-linecap="round" stroke-linejoin="round" stroke-miterlimit="4" stroke="#1eabda" stroke-width="2"><g><path d="M 170.3064 77.4884L 170.3064 85.0116L 127.4745 68.7503L 127.4868 61.2269L 170.3064 77.4884ZM 141.7599 54.0837L 184.5795 70.3453L 170.3064 77.4884L 127.4868 61.2269L 141.7599 54.0837ZM 184.5795 62.8221L 184.5795 70.3453L 141.7599 54.0837L 141.76 46.5607L 184.5795 62.8221ZM 156.0209 39.4174L 198.8527 55.6794L 184.5795 62.8221L 141.76 46.5607L 156.0209 39.4174ZM 198.865 48.1558L 198.8527 55.6794L 156.0209 39.4174L 156.0209 31.8946L 198.865 48.1558ZM 213.1382 41.0132L 202.645 46.2536L 198.865 48.1558L 156.0209 31.8946L 170.3064 24.7519L 213.1382 41.0132ZM 213.1382 33.49L 213.1382 41.0132L 170.3064 24.7519L 170.3063 17.2286L 213.1382 33.49ZM 227.5586 26.2859L 213.1382 33.49L 170.3063 17.2286L 184.7636 10L 227.5586 26.2859ZM 166.6314 106.4584C 170.0229 105.1604 171.8075 103.4804 171.9853 101.7803C 171.9951 101.6863 172 101.5922 172 101.498C 172 99.7028 170.2105 97.9075 166.6314 96.5377L 155.6863 92.3489L 112.9854 76.0065L 103.9609 72.5527C 96.8028 69.8132 85.1972 69.8132 78.0391 72.5527L 15.3686 96.5377C 11.794 97.9058 10.0044 99.6983 10 101.4914C 10 101.4958 10 101.5003 10 101.5047C 10.0044 103.2978 11.794 105.0903 15.3686 106.4584L 78.0391 130.4434C 85.1972 133.1829 96.8028 133.1829 103.9609 130.4434L 116 125.8358L 158.7494 109.475L 166.6314 106.4584ZM 213.1382 41.0132L 213.1382 33.49L 227.5586 26.2859L 227.5586 46.8091L 171.9867 103.7632L 171.9853 101.7803C 171.9951 101.6863 172 101.5922 172 101.498C 172 99.7028 170.2105 97.9075 166.6314 96.5377L 155.6863 92.3489L 170.3064 85.0116L 170.3064 77.4884L 184.5795 70.3453L 184.5795 62.8221L 198.8527 55.6794L 198.865 48.1558L 202.645 46.2536L 213.1382 41.0132ZM 127.4745 68.7503L 170.3064 85.0116L 155.6863 92.3489L 112.9854 76.0065L 127.4745 68.7503ZM 15.3686 106.4584L 78.0391 130.4434C 85.1972 133.1829 96.8028 133.1829 103.9609 130.4434L 116 125.8358L 116 146.3358L 103.9609 150.9434C 96.8028 153.6829 85.1972 153.6829 78.0391 150.9434L 15.3686 126.9584C 11.794 125.5903 10.0044 123.7978 10 122.0047L 10 101.5047C 10.0044 103.2978 11.794 105.0903 15.3686 106.4584ZM 171.9867 103.7632L 171.9853 101.7803C 171.8075 103.4804 170.0229 105.1604 166.6314 106.4584L 158.7494 109.475L 171.9957 116.1146L 171.9867 103.7632ZM 10 101.4914L 10 101.5047L 10 101.4914Z"></path></g></g></g><g id="g-root-cp_1_g-1_1ha3ofgabggsi-stroke" data-item-order="-812705" transform="translate(456.22100830078125, 627.5020751953125)"><g id="cp_1_g-1_1ha3ofgabggsi-stroke" fill="none" stroke-linecap="round" stroke-linejoin="round" stroke-miterlimit="4" stroke="#4e88e7" stroke-width="2"><g><path d="M 222.19 106.4584L 159.5195 130.4434C 152.3614 133.1829 140.7558 133.1829 133.5977 130.4434L 70.9272 106.4584C 67.5357 105.1604 65.7511 103.4804 65.5733 101.7803L 65.5719 103.7632L 65.5586 121.998C 65.5586 123.7933 67.3481 125.5886 70.9272 126.9584L 133.5977 150.9434C 140.7558 153.6829 152.3614 153.6829 159.5195 150.9434L 222.19 126.9584C 225.7646 125.5903 227.5542 123.7978 227.5586 122.0047L 227.5586 101.5047C 227.5542 103.2978 225.7646 105.0903 222.19 106.4584ZM 222.19 96.5377L 159.5195 72.5527C 152.3614 69.8132 140.7558 69.8132 133.5977 72.5527L 124.5732 76.0065L 81.8723 92.3489L 70.9272 96.5377C 67.3481 97.9075 65.5586 99.7028 65.5586 101.498C 65.5586 101.5922 65.5635 101.6863 65.5733 101.7803C 65.7511 103.4804 67.5357 105.1604 70.9272 106.4584L 133.5977 130.4434C 140.7558 133.1829 152.3614 133.1829 159.5195 130.4434L 222.19 106.4584C 225.7646 105.0903 227.5542 103.2978 227.5586 101.5047L 227.5586 101.4914C 227.5542 99.6983 225.7646 97.9058 222.19 96.5377ZM 24.4205 41.0132L 24.4205 33.49L 10 26.2859L 10 46.8091L 65.5719 103.7632L 65.5733 101.7803C 65.5635 101.6863 65.5586 101.5922 65.5586 101.498C 65.5586 99.7028 67.3481 97.9075 70.9272 96.5377L 81.8723 92.3489L 67.2522 85.0116L 67.2522 77.4884L 52.9791 70.3453L 52.9791 62.8221L 38.7059 55.6794L 38.6936 48.1558L 34.9136 46.2536L 24.4205 41.0132ZM 110.0841 68.7503L 67.2522 85.0116L 81.8723 92.3489L 124.5732 76.0065L 110.0841 68.7503ZM 67.2522 77.4884L 67.2522 85.0116L 110.0841 68.7503L 110.0718 61.2269L 67.2522 77.4884ZM 95.7987 54.0837L 52.9791 70.3453L 67.2522 77.4884L 110.0718 61.2269L 95.7987 54.0837ZM 52.9791 62.8221L 52.9791 70.3453L 95.7987 54.0837L 95.7986 46.5607L 52.9791 62.8221ZM 81.5377 39.4174L 38.7059 55.6794L 52.9791 62.8221L 95.7986 46.5607L 81.5377 39.4174ZM 38.6936 48.1558L 38.7059 55.6794L 81.5377 39.4174L 81.5377 31.8946L 38.6936 48.1558ZM 24.4205 41.0132L 34.9136 46.2536L 38.6936 48.1558L 81.5377 31.8946L 67.2523 24.7519L 24.4205 41.0132ZM 24.4205 33.49L 24.4205 41.0132L 67.2523 24.7519L 67.2523 17.2286L 24.4205 33.49ZM 10 26.2859L 24.4205 33.49L 67.2523 17.2286L 52.795 10L 10 26.2859ZM 227.5586 101.4914C 227.5586 101.4958 227.5586 101.5003 227.5586 101.5047L 227.5586 101.4914Z"></path></g></g></g><g id="g-root-cp_1_number_18f359oabgeff-stroke" data-item-order="-812691" transform="translate(698, 698.0001220703125)"><g id="cp_1_number_18f359oabgeff-stroke" fill="none" stroke-linecap="round" stroke-linejoin="round" stroke-miterlimit="4" stroke="#4e88e7" stroke-width="2"><g><path d="M 10 40C 10 23.4315 23.4315 10 40 10C 56.5685 10 70 23.4315 70 40C 70 56.5685 56.5685 70 40 70C 23.4315 70 10 56.5685 10 40Z"></path></g></g></g><g id="g-root-cp_2_number_1_13z9n58abgf7o-stroke" data-item-order="-812673" transform="translate(266, 602.0001220703125)"><g id="cp_2_number_1_13z9n58abgf7o-stroke" fill="none" stroke-linecap="round" stroke-linejoin="round" stroke-miterlimit="4" stroke="#1eabda" stroke-width="2"><g><path d="M 10 40C 10 23.4315 23.4315 10 40 10C 56.5685 10 70 23.4315 70 40C 70 56.5685 56.5685 70 40 70C 23.4315 70 10 56.5685 10 40Z"></path></g></g></g><g id="g-root-cp_3_number_2_13z9n58abgf7p-stroke" data-item-order="-812655" transform="translate(698, 500.0001220703125)"><g id="cp_3_number_2_13z9n58abgf7p-stroke" fill="none" stroke-linecap="round" stroke-linejoin="round" stroke-miterlimit="4" stroke="#3cc583" stroke-width="2"><g><path d="M 10 40C 10 23.4315 23.4315 10 40 10C 56.5685 10 70 23.4315 70 40C 70 56.5685 56.5685 70 40 70C 23.4315 70 10 56.5685 10 40Z"></path></g></g></g><g id="g-root-cp_4_number_3_v3mmwcabgg0e-stroke" data-item-order="-812637" transform="translate(266, 404.0001220703125)"><g id="cp_4_number_3_v3mmwcabgg0e-stroke" fill="none" stroke-linecap="round" stroke-linejoin="round" stroke-miterlimit="4" stroke="#92bd39" stroke-width="2"><g><path d="M 10 40C 10 23.4315 23.4315 10 40 10C 56.5685 10 70 23.4315 70 40C 70 56.5685 56.5685 70 40 70C 23.4315 70 10 56.5685 10 40Z"></path></g></g></g><g id="g-root-cp_5_number_4_v3mmwcabgg0f-stroke" data-item-order="-812619" transform="translate(698, 296.0001220703125)"><g id="cp_5_number_4_v3mmwcabgg0f-stroke" fill="none" stroke-linecap="round" stroke-linejoin="round" stroke-miterlimit="4" stroke="#e0cb15" stroke-width="2"><g><path d="M 10 40C 10 23.4315 23.4315 10 40 10C 56.5685 10 70 23.4315 70 40C 70 56.5685 56.5685 70 40 70C 23.4315 70 10 56.5685 10 40Z"></path></g></g></g><g id="g-root-cp_6_number_5_qnt4rwabggso-stroke" data-item-order="-812601" transform="translate(266, 206)"><g id="cp_6_number_5_qnt4rwabggso-stroke" fill="none" stroke-linecap="round" stroke-linejoin="round" stroke-miterlimit="4" stroke="#de8431" stroke-width="2"><g><path d="M 10 40C 10 23.4315 23.4315 10 40 10C 56.5685 10 70 23.4315 70 40C 70 56.5685 56.5685 70 40 70C 23.4315 70 10 56.5685 10 40Z"></path></g></g></g><g id="g-root-tx_serverve_meuxrgabq8ea-stroke" data-item-order="0" transform="translate(782, 296.0001220703125)"></g><g id="g-root-ic_desk_8wj7fwabq9zh-stroke" data-item-order="0" transform="translate(386, 320.0001220703125)"><g id="ic_desk_8wj7fwabq9zh-stroke" fill="none" stroke-linecap="round" stroke-linejoin="round" stroke-miterlimit="4" stroke="#92bd39" stroke-width="2"><g><path d="M 23.75 23.75L 56.25 23.75C 56.25 23.75 58.75 23.75 58.75 26.25L 58.75 36.25C 58.75 36.25 58.75 38.75 56.25 38.75L 23.75 38.75C 23.75 38.75 21.25 38.75 21.25 36.25L 21.25 26.25C 21.25 26.25 21.25 23.75 23.75 23.75M 32.844997 68.75C 34.916729 65.812805 36.098827 62.341148 36.25 58.75M 47.155003 68.75C 45.083267 65.812805 43.901169 62.341148 43.749996 58.75M 28.75 68.75L 51.25 68.75M 11.25 51.25L 68.75 51.25M 13.75 11.25L 66.25 11.25C 66.25 11.25 68.75 11.25 68.75 13.75L 68.75 56.25C 68.75 56.25 68.75 58.75 66.25 58.75L 13.75 58.75C 13.75 58.75 11.25 58.75 11.25 56.25L 11.25 13.75C 11.25 13.75 11.25 11.25 13.75 11.25M 30 30.625C 30.345177 30.625 30.625 30.904823 30.625 31.25C 30.625 31.595177 30.345177 31.875 30 31.875C 29.654823 31.875 29.375 31.595177 29.375 31.25C 29.375 30.904823 29.654823 30.625 30 30.625M 40 30.625C 40.345177 30.625 40.625 30.904823 40.625 31.25C 40.625 31.595177 40.345177 31.875 40 31.875C 39.654823 31.875 39.375 31.595177 39.375 31.25C 39.375 30.904823 39.654823 30.625 40 30.625M 50 30.625C 50.345177 30.625 50.625 30.904823 50.625 31.25C 50.625 31.595177 50.345177 31.875 50 31.875C 49.654823 31.875 49.375 31.595177 49.375 31.25C 49.375 30.904823 49.654823 30.625 50 30.625"></path></g></g></g><g id="g-root-tx_theserve_dj7xikabq96z-stroke" data-item-order="0" transform="translate(782, 332.0001220703125)"></g><g id="g-root-tx_browsers_m7zpt8abq8ej-stroke" data-item-order="0" transform="translate(62, 404.0001220703125)"></g><g id="g-root-tx_theserve_8x5ld8abgg03-stroke" data-item-order="0" transform="translate(782, 734.0001220703125)"></g><g id="g-root-tx_4_zpoz1oabq9z4-stroke" data-item-order="0" transform="translate(284, 416.0001220703125)"></g><g id="g-root-ic_key_13z9n58abt3pq-stroke" data-item-order="0" transform="translate(566, 416.0001220703125)"><g id="ic_key_13z9n58abt3pq-stroke" fill="none" stroke-linecap="round" stroke-linejoin="round" stroke-miterlimit="4" stroke="#3cc583" stroke-width="2"><g><path d="M 51.012501 60.577503C 49.792027 61.797653 47.813538 61.797482 46.593277 60.57711C 45.373016 59.356747 45.373016 57.378254 46.593277 56.15789C 47.813538 54.937523 49.792027 54.937347 51.012501 56.157497C 52.231899 57.378525 52.231899 59.356476 51.012501 60.577503ZM 10 10M 57.620003 54.855L 68.3825 44.1175C 68.617699 43.883034 68.749931 43.564606 68.75 43.232502L 68.75 40C 68.75 39.309647 68.190353 38.75 67.5 38.75L 64.25 38.75C 63.930069 38.749901 63.622276 38.872482 63.390003 39.092499L 52.317501 49.552502C 47.910397 47.685406 42.798222 49.202923 40.123604 53.172188C 37.44899 57.141449 37.961964 62.449371 41.347179 65.832993C 44.732395 69.216614 50.040565 69.727089 54.00856 67.050598C 57.976563 64.374115 59.491673 59.261223 57.622498 54.855ZM 31.25 53.75L 11.25 53.75C 11.249877 46.3932 15.850917 39.821819 22.763943 37.305344C 29.67697 34.788872 37.425751 36.864689 42.155003 42.500004M 19.594999 16.48C 22.919106 19.928225 27.502935 21.875834 32.2925 21.875C 34.694481 21.877014 37.071507 21.387827 39.2775 20.4375M 18.125 21.875C 18.125 27.743027 22.881975 32.5 28.75 32.5C 34.618027 32.5 39.375 27.743027 39.375 21.875C 39.375 16.006975 34.618027 11.25 28.75 11.25C 22.881975 11.25 18.125 16.006975 18.125 21.875Z"></path></g></g></g><g id="g-root-tx_thebrows_hs67osabq96s-stroke" data-item-order="0" transform="translate(62, 440.0001220703125)"></g><g id="g-root-tx_theauthe_4hc6ekabt1jh-stroke" data-item-order="0" transform="translate(74, 242.0001220703125)"></g><g id="g-root-ic_chec_93efe4abq9z8-stroke" data-item-order="0" transform="translate(566, 212)"><g id="ic_chec_93efe4abq9z8-stroke" fill="none" stroke-linecap="round" stroke-linejoin="round" stroke-miterlimit="4" stroke="#e0cb15" stroke-width="2"><g><path d="M 54.875 28.000175L 24.875025 28.000175L 24.875025 68.000252L 54.875 68.000252L 54.875 28.000175ZM 59.875 41.999748L 67.875 41.999748M 59.875 51.999748L 67.875 51.999748M 59.875 61.999748L 65.375 61.999748C 66.875 61.999748 67.875 60.999752 67.875 59.499748L 67.875 34.499825C 67.875 32.999825 66.875 31.999825 65.375 31.999825L 59.875 31.999825M 26.125025 41.249748L 54.875 41.249748M 26.125025 54.999752L 54.875 54.999752M 19.874975 41.999748L 11.875 41.999748M 19.874975 51.999748L 11.875 51.999748M 19.875 61.999748L 14.375 61.999748C 12.875 61.999748 11.875 60.999752 11.875 59.499748L 11.875 34.499825C 11.875 32.999825 12.875 31.999825 14.375 31.999825L 19.875 31.999825M 10 10M 36.125 14.499825L 39.875 17.9998L 46.125 11.999818"></path></g></g></g><g id="g-root-tx_3_zitr3gabq9zc-stroke" data-item-order="0" transform="translate(716, 512.0001220703125)"></g><g id="g-root-tx_authenti_1cuwne4abt2x0-stroke" data-item-order="0" transform="translate(782, 500.0001220703125)"></g><g id="g-root-tx_6_18gynosac03yk-stroke" data-item-order="0" transform="translate(284, 218)"></g><g id="g-root-ic_brow_74uwcabja4i-stroke" data-item-order="0" transform="translate(386, 518.0001220703125)"><g id="ic_brow_74uwcabja4i-stroke" fill="none" stroke-linecap="round" stroke-linejoin="round" stroke-miterlimit="4" stroke="#1eabda" stroke-width="2"><g><path d="M 46.25 49.465L 46.25 68.75L 62.322502 59.107498L 46.25 49.465ZM 68.75 68.75L 68.75 49.465M 36.25 48.75L 36.25 35C 36.25 32.238575 34.011425 30 31.25 30C 28.488577 30 26.25 32.238575 26.25 35L 26.25 48.75M 26.25 41.25L 36.25 41.25M 43.75 43.75L 43.75 30L 47.5 30C 50.261425 30 52.5 32.238575 52.5 35L 52.5 43.75C 52.504047 44.726776 52.220612 45.683159 51.684998 46.5M 38.75 58.75L 16.25 58.75C 13.488576 58.75 11.25 56.511425 11.25 53.75L 11.25 16.25C 11.25 13.488576 13.488576 11.25 16.25 11.25L 63.75 11.25C 66.511429 11.25 68.75 13.488576 68.75 16.25L 68.75 41.25M 11.25 23.75L 68.75 23.75M 20 16.875C 20.345177 16.875 20.625 17.154821 20.625 17.5C 20.625 17.845179 20.345177 18.125 20 18.125C 19.654821 18.125 19.375 17.845179 19.375 17.5C 19.375 17.154821 19.654821 16.875 20 16.875M 27.5 16.875C 27.845177 16.875 28.125 17.154821 28.125 17.5C 28.125 17.845179 27.845177 18.125 27.5 18.125C 27.154823 18.125 26.875 17.845179 26.875 17.5C 26.875 17.154821 27.154823 16.875 27.5 16.875M 35 16.875C 35.345177 16.875 35.625 17.154821 35.625 17.5C 35.625 17.845179 35.345177 18.125 35 18.125C 34.654823 18.125 34.375 17.845179 34.375 17.5C 34.375 17.154821 34.654823 16.875 35 16.875"></path></g></g></g><g id="g-root-tx_theauthe_13z9n58abt3pp-stroke" data-item-order="0" transform="translate(782, 536.0001220703125)"></g><g id="g-root-tx_browsera_dild9oabj8jk-stroke" data-item-order="0" transform="translate(122, 602.0001220703125)"></g><g id="g-root-tx_authenti_4hc6ekabt1jg-stroke" data-item-order="0" transform="translate(62, 206)"></g><g id="g-root-tx_2_1q5qoocabt4hu-stroke" data-item-order="0" transform="translate(284, 614.0001220703125)"></g><g id="g-root-ic_pc_1il4cabggss-stroke" data-item-order="0" transform="translate(566, 614.0001220703125)"><g id="ic_pc_1il4cabggss-stroke" fill="none" stroke-linecap="round" stroke-linejoin="round" stroke-miterlimit="4" stroke="#4e88e7" stroke-width="2"><g><path d="M 24.375 34.37495C 23.625 33.12495 23.125 31.874977 23.125 30.124973C 23.125 25.874975 26.625 22.624975 30.625 22.624975L 42.625 22.624975C 46.875 22.624975 50.125 26.124975 50.125 30.124973C 50.125 34.374977 46.625 37.625 42.625 37.625L 37.875 37.625M 55.625 33.625027C 56.375 34.875027 56.875 36.375 56.875 37.875C 56.875 42.125 53.375 45.375 49.375 45.375L 37.375 45.375C 33.124878 45.375 29.874876 41.875 29.874876 37.875C 29.874876 33.87505 33.374874 30.37505 37.375 30.37505L 43.374752 30.37505M 10 10M 35.125 55.075001L 32.624973 65.125M 10 10M 45.125 55.075001L 47.625 65.125M 25.124975 65.125L 55.125 65.125M 63.25 55.075001L 16.999975 55.075001C 14.249975 55.075001 11.999969 52.813751 11.999969 50.050003L 11.999969 19.900024C 11.999969 17.136274 14.249975 14.875025 16.999975 14.875025L 63.25 14.875025C 66 14.875025 68.25 17.136274 68.25 19.900024L 68.25 50.050003C 68.25 52.813751 66 55.075001 63.25 55.075001Z"></path></g></g></g><g id="g-root-tx_thebrows_4myd0sabj9c9-stroke" data-item-order="0" transform="translate(-10, 638.0001220703125)"></g><g id="g-root-ic_1_1ioa4abt2bq-stroke" data-item-order="0" transform="translate(386, 122)"><g id="ic_1_1ioa4abt2bq-stroke" fill="none" stroke-linecap="round" stroke-linejoin="round" stroke-miterlimit="4" stroke="#de8431" stroke-width="2"><g><path d="M 33.75 51.25L 11.25 51.25C 12.3075 45.535 12.1325 42.299999 15.2725 40.955002L 26.25 36.25L 26.25 31.25C 26.25 31.25 23.887499 30.375 23.887499 25C 21.434999 25 21.434999 20 23.887499 20C 23.887499 19.279999 19.7775 13.925 24.942501 15C 26.17 10 38.27 10 39.497498 15C 39.821411 16.746832 39.424625 18.550396 38.397499 20C 40.775002 20 40.125 25 38.415001 25C 38.415001 30.375 36.25 31.25 36.25 31.25L 36.25 36.25L 40 37.857498M 38.75 53.75C 38.750004 62.034271 45.465729 68.75 53.75 68.75C 62.034271 68.75 68.75 62.034271 68.75 53.75C 68.75 45.465729 62.034271 38.750004 53.75 38.750004C 45.465729 38.750004 38.750004 45.465729 38.750004 53.75ZM 10 10M 60.434998 49.389999L 53.172497 59.072498C 52.845646 59.506683 52.346893 59.778183 51.804817 59.817009C 51.262745 59.855827 50.730392 59.658173 50.345001 59.274998L 46.594997 55.524998"></path></g></g></g><g id="g-root-tx_webauthn_qnt4rwabggsp-stroke" data-item-order="0" transform="translate(314, 38)"></g><g id="g-root-tx_1_mdlwfgabja4u-stroke" data-item-order="0" transform="translate(716, 710.0001220703125)"></g><g id="g-root-tx_serverch_dcz3hoabgf7u-stroke" data-item-order="0" transform="translate(782, 698.0001220703125)"></g><g id="g-root-tx_5_qnt7xoabt2bm-stroke" data-item-order="0" transform="translate(716, 308.0001220703125)"></g></g></g><path id="w1lrrzqk97yxak" d="M65.283 12.757a.35.35 0 0 0 .584.157l5.203-5.141-6.183 3.523.396 1.461zm-2.216-11.7a.35.35 0 0 0-.522.305v3.111l3.276-1.868-2.754-1.548zm3.728 2.105l-4.25 2.421v2.445l6.391-3.644-2.141-1.222zm4.708 3.303a.35.35 0 0 0 0-.609l-1.592-.9-7.365 4.199v1.782a.35.35 0 0 0 .523.305l8.435-4.777z M44.542 2.513c0-.433.355-.783.792-.783s.792.35.792.783-.355.783-.792.783-.792-.35-.792-.783zm59.171 0c0-.433.355-.783.792-.783s.792.35.792.783-.355.783-.792.783-.792-.35-.792-.783zm-85.951 7.636h-1.27v-.487c-.276.201-.864.609-1.881.609-1.202 0-2.274-.794-2.137-2.078.118-1.106 1.153-1.584 1.848-1.727l2.17-.345c0-.539-.29-.956-1.064-1.006s-1.21.305-1.571 1.017l-1.124-.605c1.218-2.631 5.029-1.764 5.029.414v4.207zm-1.27-2.86c.006.396-.062 1.112-.819 1.59-.587.37-1.841.299-1.903-.395-.049-.555.461-.791.906-.898l1.816-.297zm72.662 2.86h-1.27v-.487c-.276.201-.864.609-1.881.609-1.202 0-2.274-.794-2.137-2.078.118-1.106 1.153-1.584 1.848-1.727l2.17-.345c0-.539-.29-.956-1.064-1.006s-1.21.305-1.571 1.017l-1.124-.605c1.218-2.631 5.029-1.764 5.029.414v4.207zm-1.27-2.86c.006.396-.062 1.112-.82 1.59-.587.37-1.841.299-1.903-.395-.049-.555.461-.791.906-.898l1.816-.297zM99.096 10.149H97.85v-8.45h1.246v4.895l2.68-2.559h1.738l-2.633 2.535 2.715 3.578h-1.556l-2.077-2.707-.867.844v1.863zm6.053-6.114h-1.255v6.113h1.255V4.035zm-59.2 0h-1.255v6.113h1.255V4.035zm5.584 6.113V1.697h1.255v2.695c.361-.346 1-.485 1.47-.485 1.452 0 2.477 1.082 2.457 2.448v3.792h-1.27v-3.68c0-.408-.214-1.339-1.315-1.339-.968 0-1.342.756-1.342 1.339v3.681h-1.255zm-4.76-4.894V4.039h.621a.45.45 0 0 0 .45-.45v-.855h1.251v1.305h1.309v1.215h-1.309v3.109c0 .293.105.664.648.664.365 0 .531-.035.736-.07v1.137s-.361.113-.857.113c-1.398 0-1.777-1.051-1.777-1.788V5.254h-1.071zM36.528 4.039h-1.394l2.191 6.106h1.125l1.234-3.918 1.238 3.918h1.129l2.188-6.106h-1.383l-1.359 3.93-1.256-3.93h-1.124l-1.242 3.957-1.348-3.957zM26.212 7.141c-.02 1.566 1.187 3.129 3.223 3.129 1.566 0 2.383-.918 2.734-1.719L31.172 8c-.315.399-.801 1.094-1.738 1.094-1.145 0-1.825-.781-1.891-1.52h4.625c.074-.284.148-.995-.03-1.559-.336-1.064-1.221-2.102-2.839-2.102s-3.088 1.152-3.088 3.227zm1.363-.75h3.348c-.055-.43-.566-1.301-1.623-1.301a1.79 1.79 0 0 0-1.725 1.301zm-8.758.75c.038 1.758 1.277 3.133 3.145 3.133 1.074 0 1.723-.477 1.961-.672v.547h1.242V1.703h-1.258v2.888c-.414-.36-1.062-.68-1.93-.68-1.91 0-3.198 1.473-3.16 3.23zm1.309-.08c0 1.119.723 1.978 1.836 1.978a1.88 1.88 0 0 0 1.94-1.904c0-1.371-1.011-1.99-1.972-1.99s-1.805.798-1.805 1.916zm76.683-.028C96.771 5.275 95.532 3.9 93.664 3.9c-1.074 0-1.723.477-1.961.672v-.547h-1.242v8.22h1.258V9.583c.414.36 1.063.68 1.93.68 1.91 0 3.198-1.473 3.16-3.23zm-1.309.08c0-1.119-.723-1.978-1.836-1.978a1.88 1.88 0 0 0-1.94 1.904c0 1.371 1.011 1.99 1.972 1.99S95.5 8.231 95.5 7.113zM106.441 10.173V4.036h1.254v.382c.361-.346 1-.485 1.47-.485 1.452 0 2.477 1.082 2.457 2.448v3.792h-1.27V6.492c0-.408-.214-1.339-1.315-1.339-.969 0-1.342.756-1.342 1.339v3.681h-1.254zm-30.383-.021V1.824h1.084l4.215 5.777V1.824h1.32v8.328h-1.094l-4.207-5.796v5.796h-1.319zM5.24 10.149H4V2.377h1.014l2.664 3.597 2.654-3.592h1.03v7.766h-1.256V4.762L7.678 8.068 5.24 4.742v5.407z" transform="translate(908, 878.0001220703125)" fill="#80808088" stroke="none"></path></svg>