<?xml version="1.0" encoding="utf-8" standalone="yes"?>
<!DOCTYPE svg PUBLIC "-//W3C//DTD SVG 1.1//EN" "http://www.w3.org/Graphics/SVG/1.1/DTD/svg11.dtd">
<svg width="1044" height="912" viewBox="0 0 1044 912" style="fill:none;stroke:none;fill-rule:evenodd;clip-rule:evenodd;stroke-linecap:round;stroke-linejoin:round;stroke-miterlimit:1.5;" version="1.1" xmlns="http://www.w3.org/2000/svg" xmlns:xlink="http://www.w3.org/1999/xlink"><style class="text-font-style fontImports" data-font-family="Roboto">@import url(https://fonts.googleapis.com/css2?family=Roboto:wght@400;700&amp;amp;display=block);</style><rect id="" x="0" y="0" width="1044" height="912" style="fill: #ffffff;"></rect><g id="items" style="isolation: isolate"><g id="blend" style="mix-blend-mode: normal"><g id="g-root-tf_zjf32k97xiis-fill" data-item-order="998571808"><g id="tf_zjf32k97xiis-fill" stroke="none" fill="#ffffff"><g><path d="M0 0h1044 v912 h -1044 Z"></path></g></g></g><g id="g-root-cp_6_g-6_1hhkeoc97jhn1-fill" data-item-order="999187275" transform="translate(350, 190.70001220703125)"></g><g id="g-root-cp_5_g-5_1hhkeoc97jhn2-fill" data-item-order="999187279" transform="translate(456.4410400390625, 229.50201416015625)"></g><g id="g-root-cp_4_g-4_1d1qwjw97jifb-fill" data-item-order="999187283" transform="translate(350.4410095214844, 329)"></g><g id="g-root-cp_3_g-3_1d1qwjw97jifc-fill" data-item-order="999187287" transform="translate(456.4410400390625, 428.50201416015625)"></g><g id="g-root-cp_2_g-2_18mjvik97jg1t-fill" data-item-order="999187291" transform="translate(350.4410095214844, 528)"></g><g id="g-root-cp_1_g-1_18mjvik97jg1u-fill" data-item-order="999187295" transform="translate(456.22100830078125, 627.5020141601562)"></g><g id="g-root-cp_1_number_zqwv9o97jguj-fill" data-item-order="999187309" transform="translate(698, 698)"></g><g id="g-root-cp_2_number_1_vb3d5897jhms-fill" data-item-order="999187327" transform="translate(266, 602)"></g><g id="g-root-cp_3_number_2_vb3d5897jhmt-fill" data-item-order="999187345" transform="translate(698, 500)"></g><g id="g-root-cp_4_number_3_mfgcwc97jifi-fill" data-item-order="999187363" transform="translate(266, 404)"></g><g id="g-root-cp_5_number_4_mfgcwc97jifj-fill" data-item-order="999187381" transform="translate(698, 296)"></g><g id="g-root-cp_6_number_5_i09bv097jg20-fill" data-item-order="999187399" transform="translate(266, 206)"></g><g id="g-root-tx_serverve_1umsci497kwea-fill" data-item-order="1000000000" transform="translate(782, 296)"><g id="tx_serverve_1umsci497kwea-fill" stroke="none" fill="#e0cb15"><g><text style="font: 15px Roboto, sans-serif; white-space: pre;" font-size="15px" font-family="Roboto, sans-serif"><tspan x="12" y="30.5" dominant-baseline="ideographic">Server Verification</tspan></text></g></g></g><g id="g-root-ic_next_v7z61897i2v6-fill" data-item-order="1000000000" transform="translate(386, 320)"></g><g id="g-root-tx_theserve_1lrrtcc97ku18-fill" data-item-order="1000000000" transform="translate(782, 332)"><g id="tx_theserve_1lrrtcc97ku18-fill" stroke="none" fill="#484848"><g><text style="font: 15px Roboto, sans-serif; white-space: pre;" font-size="15px" font-family="Roboto, sans-serif"><tspan x="12" y="30.5" dominant-baseline="ideographic">Server verifies the </tspan><tspan x="12" y="48.5" dominant-baseline="ideographic">attestation and stores the </tspan><tspan x="12" y="66.5" dominant-baseline="ideographic">public key in DB.</tspan></text></g></g></g><g id="g-root-tx_browsers_18jfoek97i1a8-fill" data-item-order="1000000000" transform="translate(62, 404)"><g id="tx_browsers_18jfoek97i1a8-fill" stroke="none" fill="#92bd39"><g><text style="font: 15px Roboto, sans-serif; white-space: pre;" font-size="15px" font-family="Roboto, sans-serif"><tspan x="16.6" y="30.5" dominant-baseline="ideographic">Browser Sends Credential</tspan></text></g></g></g><g id="g-root-tx_5_147d0ss97kweg-fill" data-item-order="1000000000" transform="translate(716, 308)"><g id="tx_5_147d0ss97kweg-fill" stroke="none" fill="#484848"><g><text style="font: 30px Roboto, sans-serif; white-space: pre;" font-size="30px" font-family="Roboto, sans-serif"><tspan x="13.57" y="45.5" dominant-baseline="ideographic">5</tspan></text></g></g></g><g id="g-root-tx_4_dcyb0s97ku87-fill" data-item-order="1000000000" transform="translate(284, 416)"><g id="tx_4_dcyb0s97ku87-fill" stroke="none" fill="#484848"><g><text style="font: 30px Roboto, sans-serif; white-space: pre;" font-size="30px" font-family="Roboto, sans-serif"><tspan x="13.57" y="45.5" dominant-baseline="ideographic">4</tspan></text></g></g></g><g id="g-root-ic_key_mg2x5897uozs-fill" data-item-order="1000000000" transform="translate(566, 416)"></g><g id="g-root-tx_thebrows_18jfoek97i1a9-fill" data-item-order="1000000000" transform="translate(62, 440)"><g id="tx_thebrows_18jfoek97i1a9-fill" stroke="none" fill="#484848"><g><text style="font: 15px Roboto, sans-serif; white-space: pre;" font-size="15px" font-family="Roboto, sans-serif"><tspan x="36.4" y="30.5" dominant-baseline="ideographic">The browser sends the </tspan><tspan x="17.13" y="48.5" dominant-baseline="ideographic">public key and attestation </tspan><tspan x="32.78" y="66.5" dominant-baseline="ideographic">data back to the server.</tspan></text></g></g></g><g id="g-root-tx_theregis_8vvuq497m8lh-fill" data-item-order="1000000000" transform="translate(74, 242)"><g id="tx_theregis_8vvuq497m8lh-fill" stroke="none" fill="#484848"><g><text style="font: 15px Roboto, sans-serif; white-space: pre;" font-size="15px" font-family="Roboto, sans-serif"><tspan x="14.23" y="30.5" dominant-baseline="ideographic">The registration process </tspan><tspan x="77.86" y="48.5" dominant-baseline="ideographic">is successfully </tspan><tspan x="101.13" y="66.5" dominant-baseline="ideographic">completed.</tspan></text></g></g></g><g id="g-root-ic_1_1hbyb7w97kuth-fill" data-item-order="1000000000" transform="translate(566, 212)"></g><g id="g-root-tx_3_1qa37t897i22t-fill" data-item-order="1000000000" transform="translate(716, 512)"><g id="tx_3_1qa37t897i22t-fill" stroke="none" fill="#484848"><g><text style="font: 30px Roboto, sans-serif; white-space: pre;" font-size="30px" font-family="Roboto, sans-serif"><tspan x="13.57" y="45.5" dominant-baseline="ideographic">3</tspan></text></g></g></g><g id="g-root-tx_authenti_146qgjw97upsd-fill" data-item-order="1000000000" transform="translate(782, 500)"><g id="tx_authenti_146qgjw97upsd-fill" stroke="none" fill="#3cc583"><g><text style="font: 15px Roboto, sans-serif; white-space: pre;" font-size="15px" font-family="Roboto, sans-serif"><tspan x="12" y="30.5" dominant-baseline="ideographic">Authenticator Keypair</tspan></text></g></g></g><g id="g-root-tx_6_1umsci497rxn2-fill" data-item-order="1000000000" transform="translate(284, 218)"><g id="tx_6_1umsci497rxn2-fill" stroke="none" fill="#484848"><g><text style="font: 30px Roboto, sans-serif; white-space: pre;" font-size="30px" font-family="Roboto, sans-serif"><tspan x="13.57" y="45.5" dominant-baseline="ideographic">6</tspan></text></g></g></g><g id="g-root-ic_clou_1uqj0p897rxfw-fill" data-item-order="1000000000" transform="translate(386, 518)"></g><g id="g-root-tx_theauthe_zqwyfg97uqkm-fill" data-item-order="1000000000" transform="translate(782, 536)"><g id="tx_theauthe_zqwyfg97uqkm-fill" stroke="none" fill="#484848"><g><text style="font: 15px Roboto, sans-serif; white-space: pre;" font-size="15px" font-family="Roboto, sans-serif"><tspan x="12" y="30.5" dominant-baseline="ideographic">Authenticator creates a key </tspan><tspan x="12" y="48.5" dominant-baseline="ideographic">pair and returns the public </tspan><tspan x="12" y="66.5" dominant-baseline="ideographic">key credential with </tspan><tspan x="12" y="84.5" dominant-baseline="ideographic">attestation data after user </tspan><tspan x="12" y="102.5" dominant-baseline="ideographic">verification.</tspan></text></g></g></g><g id="g-root-tx_browsera_90vh3g97rw22-fill" data-item-order="1000000000" transform="translate(122, 602)"><g id="tx_browsera_90vh3g97rw22-fill" stroke="none" fill="#1eabda"><g><text style="font: 15px Roboto, sans-serif; white-space: pre;" font-size="15px" font-family="Roboto, sans-serif"><tspan x="17.13" y="30.5" dominant-baseline="ideographic">Browser API Call</tspan></text></g></g></g><g id="g-root-tx_registra_dl2h5897kwek-fill" data-item-order="1000000000" transform="translate(86, 206)"><g id="tx_registra_dl2h5897kwek-fill" stroke="none" fill="#de8431"><g><text style="font: 15px Roboto, sans-serif; white-space: pre;" font-size="15px" font-family="Roboto, sans-serif"><tspan x="15.66" y="30.5" dominant-baseline="ideographic">Registration Complete</tspan></text></g></g></g><g id="g-root-tx_2_4njyh897up6o-fill" data-item-order="1000000000" transform="translate(284, 614)"><g id="tx_2_4njyh897up6o-fill" stroke="none" fill="#484848"><g><text style="font: 30px Roboto, sans-serif; white-space: pre;" font-size="30px" font-family="Roboto, sans-serif"><tspan x="13.57" y="45.5" dominant-baseline="ideographic">2</tspan></text></g></g></g><g id="g-root-ic_exch_8zbd897jif8-fill" data-item-order="1000000000" transform="translate(566, 614)"></g><g id="g-root-tx_thebrows_4l1yz097rwub-fill" data-item-order="1000000000" transform="translate(26, 638)"><g id="tx_thebrows_4l1yz097rwub-fill" stroke="none" fill="#484848"><g><text style="font: 15px Roboto, sans-serif; white-space: pre;" font-size="15px" font-family="Roboto, sans-serif"><tspan x="81.53" y="30.5" dominant-baseline="ideographic">The browser calls the </tspan><tspan x="128.06" y="48.5" dominant-baseline="ideographic">WebAuthn API </tspan><tspan x="21.13" y="66.5" dominant-baseline="ideographic">[navigator.credentials.create()] </tspan><tspan x="127.75" y="84.5" dominant-baseline="ideographic">with publicKey </tspan><tspan x="48.19" y="102.5" dominant-baseline="ideographic">CredentialCreationOptions</tspan></text></g></g></g><g id="g-root-tx_theserve_4ostho97jhmz-fill" data-item-order="1000000000" transform="translate(782, 734)"><g id="tx_theserve_4ostho97jhmz-fill" stroke="none" fill="#484848"><g><text style="font: 15px Roboto, sans-serif; white-space: pre;" font-size="15px" font-family="Roboto, sans-serif"><tspan x="12" y="30.5" dominant-baseline="ideographic">The server initiates the </tspan><tspan x="12" y="48.5" dominant-baseline="ideographic">registration process by </tspan><tspan x="12" y="66.5" dominant-baseline="ideographic">sending challenge along </tspan><tspan x="12" y="84.5" dominant-baseline="ideographic">with user-info and RP </tspan><tspan x="12" y="102.5" dominant-baseline="ideographic">data.</tspan></text></g></g></g><g id="g-root-tx_webauthn_i09bv097jg21-fill" data-item-order="1000000000" transform="translate(326, 38)"><g id="tx_webauthn_i09bv097jg21-fill" stroke="none" fill="#484848"><g><text style="font: bold 25px Roboto, sans-serif; white-space: pre;" font-weight="bold" font-size="25px" font-family="Roboto, sans-serif"><tspan x="17.54" y="42.5" dominant-baseline="ideographic">WebAuthn Registration Process</tspan></text></g></g></g><g id="g-root-tx_1_mbpido97rxmw-fill" data-item-order="1000000000" transform="translate(716, 710)"><g id="tx_1_mbpido97rxmw-fill" stroke="none" fill="#484848"><g><text style="font: 30px Roboto, sans-serif; white-space: pre;" font-size="30px" font-family="Roboto, sans-serif"><tspan x="13.57" y="45.5" dominant-baseline="ideographic">1</tspan></text></g></g></g><g id="g-root-tx_serverch_dkftqk97jgua-fill" data-item-order="1000000000" transform="translate(782, 698)"><g id="tx_serverch_dkftqk97jgua-fill" stroke="none" fill="#4e88e7"><g><text style="font: 15px Roboto, sans-serif; white-space: pre;" font-size="15px" font-family="Roboto, sans-serif"><tspan x="12" y="30.5" dominant-baseline="ideographic">Server Challenge</tspan></text></g></g></g><g id="g-root-ic_chec_8vvuq497m8li-fill" data-item-order="1000000000" transform="translate(386, 122)"></g><g id="g-root-tf_zjf32k97xiis-stroke" data-item-order="998571808"></g><g id="g-root-cp_6_g-6_1hhkeoc97jhn1-stroke" data-item-order="999187275" transform="translate(350, 190.70001220703125)"><g id="cp_6_g-6_1hhkeoc97jhn1-stroke" fill="none" stroke-linecap="round" stroke-linejoin="round" stroke-miterlimit="4" stroke="#de8431" stroke-width="2"><g><path d="M 15.3686 45.9603C 11.7895 44.5906 10 42.7953 10 41C 10 39.2047 11.7895 37.4094 15.3686 36.0397L 78.0391 12.0546C 85.1972 9.3151 96.8028 9.3151 103.9609 12.0546L 166.6314 36.0397C 170.2061 37.4077 171.9956 39.2003 172 40.9933C 172 40.9978 172 41.0022 172 41.0067C 171.9956 42.7997 170.2061 44.5923 166.6314 45.9603L 159.2234 48.7955L 116.5 65.1464L 103.9609 69.9454C 96.8028 72.6849 85.1972 72.6849 78.0391 69.9454L 15.3686 45.9603ZM 78.0391 69.9454L 15.3686 45.9603C 11.7895 44.5906 10 42.7953 10 41L 10 61.5C 10 63.2953 11.7895 65.0906 15.3686 66.4603L 78.0391 90.4454C 85.1972 93.1849 96.8028 93.1849 103.9609 90.4454L 116.5 85.6464L 116.5 65.1464L 103.9609 69.9454C 96.8028 72.6849 85.1972 72.6849 78.0391 69.9454ZM 172 41.0067C 171.9956 42.7997 170.2061 44.5923 166.6314 45.9603L 159.2234 48.7955L 172 55.1865L 172 41.0067Z"></path></g></g></g><g id="g-root-cp_5_g-5_1hhkeoc97jhn2-stroke" data-item-order="999187279" transform="translate(456.4410400390625, 229.50201416015625)"><g id="cp_5_g-5_1hhkeoc97jhn2-stroke" fill="none" stroke-linecap="round" stroke-linejoin="round" stroke-miterlimit="4" stroke="#e0cb15" stroke-width="2"><g><path d="M 67.2522 77.4884L 67.2522 85.0116L 110.0841 68.7503L 110.0718 61.2269L 67.2522 77.4884ZM 95.7987 54.0837L 52.9791 70.3453L 67.2522 77.4884L 110.0718 61.2269L 95.7987 54.0837ZM 52.9791 62.8221L 52.9791 70.3453L 95.7987 54.0837L 95.7986 46.5607L 52.9791 62.8221ZM 81.5377 39.4174L 38.7059 55.6794L 52.9791 62.8221L 95.7986 46.5607L 81.5377 39.4174ZM 38.6936 48.1558L 38.7059 55.6794L 81.5377 39.4174L 81.5377 31.8946L 38.6936 48.1558ZM 24.4205 41.0132L 34.9136 46.2536L 38.6936 48.1558L 81.5377 31.8946L 67.2523 24.7519L 24.4205 41.0132ZM 24.4205 33.49L 24.4205 41.0132L 67.2523 24.7519L 67.2523 17.2286L 24.4205 33.49ZM 10 26.2859L 24.4205 33.49L 67.2523 17.2286L 52.795 10L 10 26.2859ZM 70.9272 106.4584C 67.5357 105.1604 65.7511 103.4804 65.5733 101.7803C 65.5635 101.6863 65.5586 101.5922 65.5586 101.498C 65.5586 99.7028 67.3481 97.9075 70.9272 96.5377L 81.8723 92.3489L 124.5732 76.0065L 133.5977 72.5527C 140.7558 69.8132 152.3614 69.8132 159.5195 72.5527L 222.19 96.5377C 225.7646 97.9058 227.5542 99.6983 227.5586 101.4914C 227.5586 101.4958 227.5586 101.5003 227.5586 101.5047C 227.5542 103.2978 225.7646 105.0903 222.19 106.4584L 159.5195 130.4434C 152.3614 133.1829 140.7558 133.1829 133.5977 130.4434L 121.5586 125.8358L 78.8092 109.475L 70.9272 106.4584ZM 24.4205 41.0132L 24.4205 33.49L 10 26.2859L 10 46.8091L 65.5719 103.7632L 65.5733 101.7803C 65.5635 101.6863 65.5586 101.5922 65.5586 101.498C 65.5586 99.7028 67.3481 97.9075 70.9272 96.5377L 81.8723 92.3489L 67.2522 85.0116L 67.2522 77.4884L 52.9791 70.3453L 52.9791 62.8221L 38.7059 55.6794L 38.6936 48.1558L 34.9136 46.2536L 24.4205 41.0132ZM 110.0841 68.7503L 67.2522 85.0116L 81.8723 92.3489L 124.5732 76.0065L 110.0841 68.7503ZM 222.19 106.4584L 159.5195 130.4434C 152.3614 133.1829 140.7558 133.1829 133.5977 130.4434L 121.5586 125.8358L 121.5586 146.3358L 133.5977 150.9434C 140.7558 153.6829 152.3614 153.6829 159.5195 150.9434L 222.19 126.9584C 225.7646 125.5903 227.5542 123.7978 227.5586 122.0047L 227.5586 101.5047C 227.5542 103.2978 225.7646 105.0903 222.19 106.4584ZM 65.5733 101.7803L 65.5719 103.7632L 65.5629 116.1146L 78.8092 109.475L 70.9272 106.4584C 67.5357 105.1604 65.7511 103.4804 65.5733 101.7803ZM 227.5586 101.4914L 227.5586 101.5047L 227.5586 101.4914Z"></path></g></g></g><g id="g-root-cp_4_g-4_1d1qwjw97jifb-stroke" data-item-order="999187283" transform="translate(350.4410095214844, 329)"><g id="cp_4_g-4_1d1qwjw97jifb-stroke" fill="none" stroke-linecap="round" stroke-linejoin="round" stroke-miterlimit="4" stroke="#92bd39" stroke-width="2"><g><path d="M 170.3064 77.4884L 170.3064 85.0116L 127.4745 68.7503L 127.4868 61.2269L 170.3064 77.4884ZM 141.7599 54.0837L 184.5795 70.3453L 170.3064 77.4884L 127.4868 61.2269L 141.7599 54.0837ZM 184.5795 62.8221L 184.5795 70.3453L 141.7599 54.0837L 141.76 46.5607L 184.5795 62.8221ZM 156.0209 39.4174L 198.8527 55.6794L 184.5795 62.8221L 141.76 46.5607L 156.0209 39.4174ZM 198.865 48.1558L 198.8527 55.6794L 156.0209 39.4174L 156.0209 31.8946L 198.865 48.1558ZM 213.1382 41.0132L 202.645 46.2536L 198.865 48.1558L 156.0209 31.8946L 170.3064 24.7519L 213.1382 41.0132ZM 213.1382 33.49L 213.1382 41.0132L 170.3064 24.7519L 170.3063 17.2286L 213.1382 33.49ZM 227.5586 26.2859L 213.1382 33.49L 170.3063 17.2286L 184.7636 10L 227.5586 26.2859ZM 166.6314 106.4584C 170.0229 105.1604 171.8075 103.4804 171.9853 101.7803C 171.9951 101.6863 172 101.5922 172 101.498C 172 99.7028 170.2105 97.9075 166.6314 96.5377L 155.6863 92.3489L 112.9854 76.0065L 103.9609 72.5527C 96.8028 69.8132 85.1972 69.8132 78.0391 72.5527L 15.3686 96.5377C 11.794 97.9058 10.0044 99.6983 10 101.4914C 10 101.4958 10 101.5003 10 101.5047C 10.0044 103.2978 11.794 105.0903 15.3686 106.4584L 78.0391 130.4434C 85.1972 133.1829 96.8028 133.1829 103.9609 130.4434L 116 125.8358L 158.7494 109.475L 166.6314 106.4584ZM 213.1382 41.0132L 213.1382 33.49L 227.5586 26.2859L 227.5586 46.8091L 171.9867 103.7632L 171.9853 101.7803C 171.9951 101.6863 172 101.5922 172 101.498C 172 99.7028 170.2105 97.9075 166.6314 96.5377L 155.6863 92.3489L 170.3064 85.0116L 170.3064 77.4884L 184.5795 70.3453L 184.5795 62.8221L 198.8527 55.6794L 198.865 48.1558L 202.645 46.2536L 213.1382 41.0132ZM 127.4745 68.7503L 170.3064 85.0116L 155.6863 92.3489L 112.9854 76.0065L 127.4745 68.7503ZM 15.3686 106.4584L 78.0391 130.4434C 85.1972 133.1829 96.8028 133.1829 103.9609 130.4434L 116 125.8358L 116 146.3358L 103.9609 150.9434C 96.8028 153.6829 85.1972 153.6829 78.0391 150.9434L 15.3686 126.9584C 11.794 125.5903 10.0044 123.7978 10 122.0047L 10 101.5047C 10.0044 103.2978 11.794 105.0903 15.3686 106.4584ZM 171.9867 103.7632L 171.9853 101.7803C 171.8075 103.4804 170.0229 105.1604 166.6314 106.4584L 158.7494 109.475L 171.9957 116.1146L 171.9867 103.7632ZM 10 101.4914L 10 101.5047L 10 101.4914Z"></path></g></g></g><g id="g-root-cp_3_g-3_1d1qwjw97jifc-stroke" data-item-order="999187287" transform="translate(456.4410400390625, 428.50201416015625)"><g id="cp_3_g-3_1d1qwjw97jifc-stroke" fill="none" stroke-linecap="round" stroke-linejoin="round" stroke-miterlimit="4" stroke="#3cc583" stroke-width="2"><g><path d="M 67.2522 77.4884L 67.2522 85.0116L 110.0841 68.7503L 110.0718 61.2269L 67.2522 77.4884ZM 95.7987 54.0837L 52.9791 70.3453L 67.2522 77.4884L 110.0718 61.2269L 95.7987 54.0837ZM 52.9791 62.8221L 52.9791 70.3453L 95.7987 54.0837L 95.7986 46.5607L 52.9791 62.8221ZM 81.5377 39.4174L 38.7059 55.6794L 52.9791 62.8221L 95.7986 46.5607L 81.5377 39.4174ZM 38.6936 48.1558L 38.7059 55.6794L 81.5377 39.4174L 81.5377 31.8946L 38.6936 48.1558ZM 24.4205 41.0132L 34.9136 46.2536L 38.6936 48.1558L 81.5377 31.8946L 67.2523 24.7519L 24.4205 41.0132ZM 24.4205 33.49L 24.4205 41.0132L 67.2523 24.7519L 67.2523 17.2286L 24.4205 33.49ZM 10 26.2859L 24.4205 33.49L 67.2523 17.2286L 52.795 10L 10 26.2859ZM 70.9272 106.4584C 67.5357 105.1604 65.7511 103.4804 65.5733 101.7803C 65.5635 101.6863 65.5586 101.5922 65.5586 101.498C 65.5586 99.7028 67.3481 97.9075 70.9272 96.5377L 81.8723 92.3489L 124.5732 76.0065L 133.5977 72.5527C 140.7558 69.8132 152.3614 69.8132 159.5195 72.5527L 222.19 96.5377C 225.7646 97.9058 227.5542 99.6983 227.5586 101.4914C 227.5586 101.4958 227.5586 101.5003 227.5586 101.5047C 227.5542 103.2978 225.7646 105.0903 222.19 106.4584L 159.5195 130.4434C 152.3614 133.1829 140.7558 133.1829 133.5977 130.4434L 121.5586 125.8358L 78.8092 109.475L 70.9272 106.4584ZM 24.4205 41.0132L 24.4205 33.49L 10 26.2859L 10 46.8091L 65.5719 103.7632L 65.5733 101.7803C 65.5635 101.6863 65.5586 101.5922 65.5586 101.498C 65.5586 99.7028 67.3481 97.9075 70.9272 96.5377L 81.8723 92.3489L 67.2522 85.0116L 67.2522 77.4884L 52.9791 70.3453L 52.9791 62.8221L 38.7059 55.6794L 38.6936 48.1558L 34.9136 46.2536L 24.4205 41.0132ZM 110.0841 68.7503L 67.2522 85.0116L 81.8723 92.3489L 124.5732 76.0065L 110.0841 68.7503ZM 222.19 106.4584L 159.5195 130.4434C 152.3614 133.1829 140.7558 133.1829 133.5977 130.4434L 121.5586 125.8358L 121.5586 146.3358L 133.5977 150.9434C 140.7558 153.6829 152.3614 153.6829 159.5195 150.9434L 222.19 126.9584C 225.7646 125.5903 227.5542 123.7978 227.5586 122.0047L 227.5586 101.5047C 227.5542 103.2978 225.7646 105.0903 222.19 106.4584ZM 65.5733 101.7803L 65.5719 103.7632L 65.5629 116.1146L 78.8092 109.475L 70.9272 106.4584C 67.5357 105.1604 65.7511 103.4804 65.5733 101.7803ZM 227.5586 101.4914L 227.5586 101.5047L 227.5586 101.4914Z"></path></g></g></g><g id="g-root-cp_2_g-2_18mjvik97jg1t-stroke" data-item-order="999187291" transform="translate(350.4410095214844, 528)"><g id="cp_2_g-2_18mjvik97jg1t-stroke" fill="none" stroke-linecap="round" stroke-linejoin="round" stroke-miterlimit="4" stroke="#1eabda" stroke-width="2"><g><path d="M 170.3064 77.4884L 170.3064 85.0116L 127.4745 68.7503L 127.4868 61.2269L 170.3064 77.4884ZM 141.7599 54.0837L 184.5795 70.3453L 170.3064 77.4884L 127.4868 61.2269L 141.7599 54.0837ZM 184.5795 62.8221L 184.5795 70.3453L 141.7599 54.0837L 141.76 46.5607L 184.5795 62.8221ZM 156.0209 39.4174L 198.8527 55.6794L 184.5795 62.8221L 141.76 46.5607L 156.0209 39.4174ZM 198.865 48.1558L 198.8527 55.6794L 156.0209 39.4174L 156.0209 31.8946L 198.865 48.1558ZM 213.1382 41.0132L 202.645 46.2536L 198.865 48.1558L 156.0209 31.8946L 170.3064 24.7519L 213.1382 41.0132ZM 213.1382 33.49L 213.1382 41.0132L 170.3064 24.7519L 170.3063 17.2286L 213.1382 33.49ZM 227.5586 26.2859L 213.1382 33.49L 170.3063 17.2286L 184.7636 10L 227.5586 26.2859ZM 166.6314 106.4584C 170.0229 105.1604 171.8075 103.4804 171.9853 101.7803C 171.9951 101.6863 172 101.5922 172 101.498C 172 99.7028 170.2105 97.9075 166.6314 96.5377L 155.6863 92.3489L 112.9854 76.0065L 103.9609 72.5527C 96.8028 69.8132 85.1972 69.8132 78.0391 72.5527L 15.3686 96.5377C 11.794 97.9058 10.0044 99.6983 10 101.4914C 10 101.4958 10 101.5003 10 101.5047C 10.0044 103.2978 11.794 105.0903 15.3686 106.4584L 78.0391 130.4434C 85.1972 133.1829 96.8028 133.1829 103.9609 130.4434L 116 125.8358L 158.7494 109.475L 166.6314 106.4584ZM 213.1382 41.0132L 213.1382 33.49L 227.5586 26.2859L 227.5586 46.8091L 171.9867 103.7632L 171.9853 101.7803C 171.9951 101.6863 172 101.5922 172 101.498C 172 99.7028 170.2105 97.9075 166.6314 96.5377L 155.6863 92.3489L 170.3064 85.0116L 170.3064 77.4884L 184.5795 70.3453L 184.5795 62.8221L 198.8527 55.6794L 198.865 48.1558L 202.645 46.2536L 213.1382 41.0132ZM 127.4745 68.7503L 170.3064 85.0116L 155.6863 92.3489L 112.9854 76.0065L 127.4745 68.7503ZM 15.3686 106.4584L 78.0391 130.4434C 85.1972 133.1829 96.8028 133.1829 103.9609 130.4434L 116 125.8358L 116 146.3358L 103.9609 150.9434C 96.8028 153.6829 85.1972 153.6829 78.0391 150.9434L 15.3686 126.9584C 11.794 125.5903 10.0044 123.7978 10 122.0047L 10 101.5047C 10.0044 103.2978 11.794 105.0903 15.3686 106.4584ZM 171.9867 103.7632L 171.9853 101.7803C 171.8075 103.4804 170.0229 105.1604 166.6314 106.4584L 158.7494 109.475L 171.9957 116.1146L 171.9867 103.7632ZM 10 101.4914L 10 101.5047L 10 101.4914Z"></path></g></g></g><g id="g-root-cp_1_g-1_18mjvik97jg1u-stroke" data-item-order="999187295" transform="translate(456.22100830078125, 627.5020141601562)"><g id="cp_1_g-1_18mjvik97jg1u-stroke" fill="none" stroke-linecap="round" stroke-linejoin="round" stroke-miterlimit="4" stroke="#4e88e7" stroke-width="2"><g><path d="M 222.19 106.4584L 159.5195 130.4434C 152.3614 133.1829 140.7558 133.1829 133.5977 130.4434L 70.9272 106.4584C 67.5357 105.1604 65.7511 103.4804 65.5733 101.7803L 65.5719 103.7632L 65.5586 121.998C 65.5586 123.7933 67.3481 125.5886 70.9272 126.9584L 133.5977 150.9434C 140.7558 153.6829 152.3614 153.6829 159.5195 150.9434L 222.19 126.9584C 225.7646 125.5903 227.5542 123.7978 227.5586 122.0047L 227.5586 101.5047C 227.5542 103.2978 225.7646 105.0903 222.19 106.4584ZM 222.19 96.5377L 159.5195 72.5527C 152.3614 69.8132 140.7558 69.8132 133.5977 72.5527L 124.5732 76.0065L 81.8723 92.3489L 70.9272 96.5377C 67.3481 97.9075 65.5586 99.7028 65.5586 101.498C 65.5586 101.5922 65.5635 101.6863 65.5733 101.7803C 65.7511 103.4804 67.5357 105.1604 70.9272 106.4584L 133.5977 130.4434C 140.7558 133.1829 152.3614 133.1829 159.5195 130.4434L 222.19 106.4584C 225.7646 105.0903 227.5542 103.2978 227.5586 101.5047L 227.5586 101.4914C 227.5542 99.6983 225.7646 97.9058 222.19 96.5377ZM 24.4205 41.0132L 24.4205 33.49L 10 26.2859L 10 46.8091L 65.5719 103.7632L 65.5733 101.7803C 65.5635 101.6863 65.5586 101.5922 65.5586 101.498C 65.5586 99.7028 67.3481 97.9075 70.9272 96.5377L 81.8723 92.3489L 67.2522 85.0116L 67.2522 77.4884L 52.9791 70.3453L 52.9791 62.8221L 38.7059 55.6794L 38.6936 48.1558L 34.9136 46.2536L 24.4205 41.0132ZM 110.0841 68.7503L 67.2522 85.0116L 81.8723 92.3489L 124.5732 76.0065L 110.0841 68.7503ZM 67.2522 77.4884L 67.2522 85.0116L 110.0841 68.7503L 110.0718 61.2269L 67.2522 77.4884ZM 95.7987 54.0837L 52.9791 70.3453L 67.2522 77.4884L 110.0718 61.2269L 95.7987 54.0837ZM 52.9791 62.8221L 52.9791 70.3453L 95.7987 54.0837L 95.7986 46.5607L 52.9791 62.8221ZM 81.5377 39.4174L 38.7059 55.6794L 52.9791 62.8221L 95.7986 46.5607L 81.5377 39.4174ZM 38.6936 48.1558L 38.7059 55.6794L 81.5377 39.4174L 81.5377 31.8946L 38.6936 48.1558ZM 24.4205 41.0132L 34.9136 46.2536L 38.6936 48.1558L 81.5377 31.8946L 67.2523 24.7519L 24.4205 41.0132ZM 24.4205 33.49L 24.4205 41.0132L 67.2523 24.7519L 67.2523 17.2286L 24.4205 33.49ZM 10 26.2859L 24.4205 33.49L 67.2523 17.2286L 52.795 10L 10 26.2859ZM 227.5586 101.4914C 227.5586 101.4958 227.5586 101.5003 227.5586 101.5047L 227.5586 101.4914Z"></path></g></g></g><g id="g-root-cp_1_number_zqwv9o97jguj-stroke" data-item-order="999187309" transform="translate(698, 698)"><g id="cp_1_number_zqwv9o97jguj-stroke" fill="none" stroke-linecap="round" stroke-linejoin="round" stroke-miterlimit="4" stroke="#4e88e7" stroke-width="2"><g><path d="M 10 40C 10 23.4315 23.4315 10 40 10C 56.5685 10 70 23.4315 70 40C 70 56.5685 56.5685 70 40 70C 23.4315 70 10 56.5685 10 40Z"></path></g></g></g><g id="g-root-cp_2_number_1_vb3d5897jhms-stroke" data-item-order="999187327" transform="translate(266, 602)"><g id="cp_2_number_1_vb3d5897jhms-stroke" fill="none" stroke-linecap="round" stroke-linejoin="round" stroke-miterlimit="4" stroke="#1eabda" stroke-width="2"><g><path d="M 10 40C 10 23.4315 23.4315 10 40 10C 56.5685 10 70 23.4315 70 40C 70 56.5685 56.5685 70 40 70C 23.4315 70 10 56.5685 10 40Z"></path></g></g></g><g id="g-root-cp_3_number_2_vb3d5897jhmt-stroke" data-item-order="999187345" transform="translate(698, 500)"><g id="cp_3_number_2_vb3d5897jhmt-stroke" fill="none" stroke-linecap="round" stroke-linejoin="round" stroke-miterlimit="4" stroke="#3cc583" stroke-width="2"><g><path d="M 10 40C 10 23.4315 23.4315 10 40 10C 56.5685 10 70 23.4315 70 40C 70 56.5685 56.5685 70 40 70C 23.4315 70 10 56.5685 10 40Z"></path></g></g></g><g id="g-root-cp_4_number_3_mfgcwc97jifi-stroke" data-item-order="999187363" transform="translate(266, 404)"><g id="cp_4_number_3_mfgcwc97jifi-stroke" fill="none" stroke-linecap="round" stroke-linejoin="round" stroke-miterlimit="4" stroke="#92bd39" stroke-width="2"><g><path d="M 10 40C 10 23.4315 23.4315 10 40 10C 56.5685 10 70 23.4315 70 40C 70 56.5685 56.5685 70 40 70C 23.4315 70 10 56.5685 10 40Z"></path></g></g></g><g id="g-root-cp_5_number_4_mfgcwc97jifj-stroke" data-item-order="999187381" transform="translate(698, 296)"><g id="cp_5_number_4_mfgcwc97jifj-stroke" fill="none" stroke-linecap="round" stroke-linejoin="round" stroke-miterlimit="4" stroke="#e0cb15" stroke-width="2"><g><path d="M 10 40C 10 23.4315 23.4315 10 40 10C 56.5685 10 70 23.4315 70 40C 70 56.5685 56.5685 70 40 70C 23.4315 70 10 56.5685 10 40Z"></path></g></g></g><g id="g-root-cp_6_number_5_i09bv097jg20-stroke" data-item-order="999187399" transform="translate(266, 206)"><g id="cp_6_number_5_i09bv097jg20-stroke" fill="none" stroke-linecap="round" stroke-linejoin="round" stroke-miterlimit="4" stroke="#de8431" stroke-width="2"><g><path d="M 10 40C 10 23.4315 23.4315 10 40 10C 56.5685 10 70 23.4315 70 40C 70 56.5685 56.5685 70 40 70C 23.4315 70 10 56.5685 10 40Z"></path></g></g></g><g id="g-root-tx_serverve_1umsci497kwea-stroke" data-item-order="1000000000" transform="translate(782, 296)"></g><g id="g-root-ic_next_v7z61897i2v6-stroke" data-item-order="1000000000" transform="translate(386, 320)"><g id="ic_next_v7z61897i2v6-stroke" fill="none" stroke-linecap="round" stroke-linejoin="round" stroke-miterlimit="4" stroke="#92bd39" stroke-width="2"><g><path d="M 57.575001 40.009998L 68.825005 48.759998L 57.575001 57.509998M 68.825005 48.75L 60.075001 48.75C 51.79073 48.75 45.075001 55.465733 45.075001 63.75L 45.075001 68.75M 12.575 21.26L 62.575001 21.26M 20.075001 15.635L 20.075001 15.635M 20.075001 15.635C 19.729822 15.635 19.450001 15.914823 19.450001 16.26C 19.450001 16.605179 19.729822 16.885 20.075001 16.885C 20.420177 16.885 20.700001 16.605179 20.700001 16.26C 20.700001 15.914823 20.420177 15.635 20.075001 15.635M 25.075001 15.635L 25.075001 15.635M 25.075001 15.635C 24.729822 15.635 24.450001 15.914823 24.450001 16.26C 24.450001 16.605179 24.729822 16.885 25.075001 16.885C 25.420177 16.885 25.700001 16.605179 25.700001 16.26C 25.700001 15.914823 25.420177 15.635 25.075001 15.635M 30.074999 15.635L 30.074999 15.635M 30.074999 15.635C 29.729822 15.635 29.450001 15.914823 29.450001 16.26C 29.450001 16.605179 29.729822 16.885 30.074999 16.885C 30.420177 16.885 30.699999 16.605179 30.699999 16.26C 30.699999 15.914823 30.420177 15.635 30.074999 15.635M 40.075001 51.25L 17.575001 51.25C 14.813577 51.25 12.575 49.011425 12.575 46.25L 12.575 16.25C 12.575 13.488576 14.813577 11.25 17.575001 11.25L 57.575001 11.25C 60.336422 11.25 62.575001 13.488576 62.575001 16.25L 62.575001 36.25"></path></g></g></g><g id="g-root-tx_theserve_1lrrtcc97ku18-stroke" data-item-order="1000000000" transform="translate(782, 332)"></g><g id="g-root-tx_browsers_18jfoek97i1a8-stroke" data-item-order="1000000000" transform="translate(62, 404)"></g><g id="g-root-tx_5_147d0ss97kweg-stroke" data-item-order="1000000000" transform="translate(716, 308)"></g><g id="g-root-tx_4_dcyb0s97ku87-stroke" data-item-order="1000000000" transform="translate(284, 416)"></g><g id="g-root-ic_key_mg2x5897uozs-stroke" data-item-order="1000000000" transform="translate(566, 416)"><g id="ic_key_mg2x5897uozs-stroke" fill="none" stroke-linecap="round" stroke-linejoin="round" stroke-miterlimit="4" stroke="#3cc583" stroke-width="2"><g><path d="M 51.012501 60.577503C 49.792027 61.797653 47.813538 61.797482 46.593277 60.57711C 45.373016 59.356747 45.373016 57.378254 46.593277 56.15789C 47.813538 54.937523 49.792027 54.937347 51.012501 56.157497C 52.231899 57.378525 52.231899 59.356476 51.012501 60.577503ZM 10 10M 57.620003 54.855L 68.3825 44.1175C 68.617699 43.883034 68.749931 43.564606 68.75 43.232502L 68.75 40C 68.75 39.309647 68.190353 38.75 67.5 38.75L 64.25 38.75C 63.930069 38.749901 63.622276 38.872482 63.390003 39.092499L 52.317501 49.552502C 47.910397 47.685406 42.798222 49.202923 40.123604 53.172188C 37.44899 57.141449 37.961964 62.449371 41.347179 65.832993C 44.732395 69.216614 50.040565 69.727089 54.00856 67.050598C 57.976563 64.374115 59.491673 59.261223 57.622498 54.855ZM 18.125 21.875C 18.125 27.743027 22.881975 32.5 28.75 32.5C 34.618027 32.5 39.375 27.743027 39.375 21.875C 39.375 16.006975 34.618027 11.25 28.75 11.25C 22.881975 11.25 18.125 16.006975 18.125 21.875ZM 31.25 53.75L 11.25 53.75C 11.249877 46.3932 15.850917 39.821819 22.763943 37.305344C 29.67697 34.788872 37.425751 36.864689 42.155003 42.500004"></path></g></g></g><g id="g-root-tx_thebrows_18jfoek97i1a9-stroke" data-item-order="1000000000" transform="translate(62, 440)"></g><g id="g-root-tx_theregis_8vvuq497m8lh-stroke" data-item-order="1000000000" transform="translate(74, 242)"></g><g id="g-root-ic_1_1hbyb7w97kuth-stroke" data-item-order="1000000000" transform="translate(566, 212)"><g id="ic_1_1hbyb7w97kuth-stroke" fill="none" stroke-linecap="round" stroke-linejoin="round" stroke-miterlimit="4" stroke="#e0cb15" stroke-width="2"><g><path d="M 38.75 53.75C 38.750004 62.034271 45.465729 68.75 53.75 68.75C 62.034271 68.75 68.75 62.034271 68.75 53.75C 68.75 45.465729 62.034271 38.750004 53.75 38.750004C 45.465729 38.750004 38.750004 45.465729 38.750004 53.75ZM 60.434998 49.389999L 53.172497 59.074997C 52.846241 59.509445 52.347572 59.781006 51.805618 59.819378C 51.263664 59.857746 50.731716 59.659149 50.3475 59.275002L 46.5975 55.524998M 23.75 61.25L 31.25 61.25M 31.252501 48.75L 31.252501 61.25M 18.125 60C 17.779821 60 17.5 60.279823 17.5 60.625C 17.5 60.970177 17.779821 61.25 18.125 61.25C 18.470179 61.25 18.75 60.970177 18.75 60.625C 18.75 60.279823 18.470179 60 18.125 60L 18.125 60M 11.875 60C 11.529822 60 11.25 60.279823 11.25 60.625C 11.25 60.970177 11.529822 61.25 11.875 61.25C 12.220178 61.25 12.5 60.970177 12.5 60.625C 12.5 60.279823 12.220178 60 11.875 60L 11.875 60M 20.625 41.875C 20.279823 41.875 20 42.154823 20 42.5C 20 42.845177 20.279823 43.125 20.625 43.125C 20.970177 43.125 21.25 42.845177 21.25 42.5C 21.25 42.154823 20.970177 41.875 20.625 41.875L 20.625 41.875M 26.875 41.875C 26.529823 41.875 26.25 42.154823 26.25 42.5C 26.25 42.845177 26.529823 43.125 26.875 43.125C 27.220177 43.125 27.5 42.845177 27.5 42.5C 27.5 42.154823 27.220177 41.875 26.875 41.875L 26.875 41.875M 41.25 36.25L 17.5 36.25C 14.048221 36.25 11.25 39.048222 11.25 42.5C 11.25 45.951782 14.048221 48.75 17.5 48.75L 33.75 48.75M 20.625 29.375C 20.279823 29.375 20 29.654823 20 30C 20 30.345177 20.279823 30.625 20.625 30.625C 20.970177 30.625 21.25 30.345177 21.25 30C 21.25 29.654823 20.970177 29.375 20.625 29.375L 20.625 29.375M 26.875 29.375C 26.529823 29.375 26.25 29.654823 26.25 30C 26.25 30.345177 26.529823 30.625 26.875 30.625C 27.220177 30.625 27.5 30.345177 27.5 30C 27.5 29.654823 27.220177 29.375 26.875 29.375L 26.875 29.375M 53.75 30C 53.75 26.548222 50.951782 23.75 47.5 23.75L 17.5 23.75C 14.048221 23.75 11.25 26.548222 11.25 30C 11.25 33.451778 14.048221 36.25 17.5 36.25L 41.25 36.25M 20.625 16.875C 20.279823 16.875 20 17.154821 20 17.5C 20 17.845179 20.279823 18.125 20.625 18.125C 20.970177 18.125 21.25 17.845179 21.25 17.5C 21.25 17.154821 20.970177 16.875 20.625 16.875L 20.625 16.875M 26.875 16.875C 26.529823 16.875 26.25 17.154821 26.25 17.5C 26.25 17.845179 26.529823 18.125 26.875 18.125C 27.220177 18.125 27.5 17.845179 27.5 17.5C 27.5 17.154821 27.220177 16.875 26.875 16.875L 26.875 16.875M 53.75 17.5C 53.75 14.048221 50.951782 11.25 47.5 11.25L 17.5 11.25C 14.048221 11.25 11.25 14.048221 11.25 17.5C 11.25 20.95178 14.048221 23.75 17.5 23.75L 47.5 23.75C 50.951782 23.75 53.75 20.95178 53.75 17.5Z"></path></g></g></g><g id="g-root-tx_3_1qa37t897i22t-stroke" data-item-order="1000000000" transform="translate(716, 512)"></g><g id="g-root-tx_authenti_146qgjw97upsd-stroke" data-item-order="1000000000" transform="translate(782, 500)"></g><g id="g-root-tx_6_1umsci497rxn2-stroke" data-item-order="1000000000" transform="translate(284, 218)"></g><g id="g-root-ic_clou_1uqj0p897rxfw-stroke" data-item-order="1000000000" transform="translate(386, 518)"><g id="ic_clou_1uqj0p897rxfw-stroke" fill="none" stroke-linecap="round" stroke-linejoin="round" stroke-miterlimit="4" stroke="#1eabda" stroke-width="2"><g><path d="M 59.4175 68.415001L 59.4175 52.080002M 56.149998 52.080002L 62.684998 52.080002M 56.149998 68.415001L 62.684998 68.415001M 37.797501 68.415001L 37.797501 61.880001M 37.797501 61.880001L 42.700001 61.880001C 45.40593 61.879623 47.599323 59.685932 47.599323 56.98C 47.599323 54.274067 45.40593 52.080376 42.700001 52.080002L 37.797501 52.080002ZM 16.1775 68.415001L 18.022501 56.1175C 18.392117 53.814133 20.379665 52.120094 22.7125 52.120094C 25.045336 52.120094 27.032883 53.814133 27.4025 56.1175L 29.25 68.415001M 17.035 62.697502L 28.389999 62.697502M 68.75 34.084999C 68.753136 30.692022 67.374107 27.444138 64.930748 25.08993C 62.487389 22.735722 59.190517 21.478306 55.799999 21.607498C 52.395882 14.379252 44.5224 10.38088 36.677795 11.896717C 28.833191 13.412554 23.016132 20.056393 22.549999 28.032501C 19.785784 27.453503 16.907833 28.151142 14.715572 29.931625C 12.523313 31.712111 11.250246 34.385796 11.25 37.209999C 11.25 46.735001 21.25 46.584999 21.25 46.584999L 57.5 46.584999C 57.5 46.584999 68.75 45.120003 68.75 34.084999Z"></path></g></g></g><g id="g-root-tx_theauthe_zqwyfg97uqkm-stroke" data-item-order="1000000000" transform="translate(782, 536)"></g><g id="g-root-tx_browsera_90vh3g97rw22-stroke" data-item-order="1000000000" transform="translate(122, 602)"></g><g id="g-root-tx_registra_dl2h5897kwek-stroke" data-item-order="1000000000" transform="translate(86, 206)"></g><g id="g-root-tx_2_4njyh897up6o-stroke" data-item-order="1000000000" transform="translate(284, 614)"></g><g id="g-root-ic_exch_8zbd897jif8-stroke" data-item-order="1000000000" transform="translate(566, 614)"><g id="ic_exch_8zbd897jif8-stroke" fill="none" stroke-linecap="round" stroke-linejoin="round" stroke-miterlimit="4" stroke="#4e88e7" stroke-width="2"><g><path d="M 21.25 32.5L 21.25 26.875C 21.249334 24.387091 22.237871 22.001001 23.997791 20.242487C 25.757711 18.483974 28.144592 17.497345 30.6325 17.5L 35 17.5M 26.2575 27.5L 21.2575 32.5L 16.2575 27.5M 31.2575 13.75L 35.0075 17.5L 31.2575 21.25M 18.75 68.75L 33.75 68.75M 26.25 68.75L 26.25 61.25M 41.25 58.75C 41.25 60.130711 40.130714 61.25 38.75 61.25L 13.75 61.25C 12.369288 61.25 11.25 60.130711 11.25 58.75L 11.25 41.25C 11.25 39.869286 12.369288 38.75 13.75 38.75L 38.75 38.75C 40.130714 38.75 41.25 39.869286 41.25 41.25ZM 68.75 16.25C 68.75 19.011423 66.511429 21.25 63.75 21.25L 51.25 21.25C 48.488575 21.25 46.25 19.011423 46.25 16.25C 46.25 13.488576 48.488575 11.25 51.25 11.25L 63.75 11.25C 66.511429 11.25 68.75 13.488576 68.75 16.25ZM 53.125 15.625C 52.779823 15.625 52.5 15.904821 52.5 16.25C 52.5 16.595179 52.779823 16.875 53.125 16.875C 53.470177 16.875 53.75 16.595179 53.75 16.25C 53.75 15.904821 53.470177 15.625 53.125 15.625L 53.125 15.625M 68.75 26.25C 68.75 29.011423 66.511429 31.25 63.75 31.25L 51.25 31.25C 48.488575 31.25 46.25 29.011423 46.25 26.25C 46.25 23.488577 48.488575 21.25 51.25 21.25L 63.75 21.25C 66.511429 21.25 68.75 23.488577 68.75 26.25ZM 53.125 25.625C 52.779823 25.625 52.5 25.904823 52.5 26.25C 52.5 26.595177 52.779823 26.875 53.125 26.875C 53.470177 26.875 53.75 26.595177 53.75 26.25C 53.75 25.904823 53.470177 25.625 53.125 25.625L 53.125 25.625M 68.75 36.25C 68.75 39.011425 66.511429 41.25 63.75 41.25L 51.25 41.25C 48.488575 41.25 46.25 39.011425 46.25 36.25C 46.25 33.488575 48.488575 31.25 51.25 31.25L 63.75 31.25C 66.511429 31.25 68.75 33.488575 68.75 36.25ZM 53.125 35.625C 52.779823 35.625 52.5 35.904823 52.5 36.25C 52.5 36.595177 52.779823 36.875 53.125 36.875C 53.470177 36.875 53.75 36.595177 53.75 36.25C 53.75 35.904823 53.470177 35.625 53.125 35.625L 53.125 35.625"></path></g></g></g><g id="g-root-tx_thebrows_4l1yz097rwub-stroke" data-item-order="1000000000" transform="translate(26, 638)"></g><g id="g-root-tx_theserve_4ostho97jhmz-stroke" data-item-order="1000000000" transform="translate(782, 734)"></g><g id="g-root-tx_webauthn_i09bv097jg21-stroke" data-item-order="1000000000" transform="translate(326, 38)"></g><g id="g-root-tx_1_mbpido97rxmw-stroke" data-item-order="1000000000" transform="translate(716, 710)"></g><g id="g-root-tx_serverch_dkftqk97jgua-stroke" data-item-order="1000000000" transform="translate(782, 698)"></g><g id="g-root-ic_chec_8vvuq497m8li-stroke" data-item-order="1000000000" transform="translate(386, 122)"><g id="ic_chec_8vvuq497m8li-stroke" fill="none" stroke-linecap="round" stroke-linejoin="round" stroke-miterlimit="4" stroke="#de8431" stroke-width="2"><g><path d="M 43.125 26.875C 43.125 33.778561 48.721443 39.375 55.625 39.375C 62.528557 39.375 68.125 33.778561 68.125 26.875C 68.125 19.971441 62.528557 14.375 55.625 14.375C 48.721443 14.375 43.125 19.971441 43.125 26.875ZM 50.625 28.125L 53.3325 30.8325C 53.592323 31.091921 53.95306 31.223995 54.318966 31.193665C 54.684872 31.163332 55.01894 30.973663 55.232502 30.675001L 60.625 23.125M 51.959999 44.529999L 49.747501 46.454998L 55.997501 65.229996C 56.169048 65.746239 55.987022 66.314148 55.547352 66.634476C 55.107681 66.954811 54.511314 66.95401 54.072498 66.6325L 38.5 55.205002L 22.914999 66.6325C 22.476187 66.95401 21.879822 66.954811 21.440147 66.634476C 21.000475 66.314148 20.818455 65.746239 20.99 65.229996L 27.24 46.454998L 12.3125 32.825001C 11.914736 32.484848 11.770995 31.932905 11.952316 31.44194C 12.133637 30.950981 12.601625 30.62496 13.125 30.625L 31 30.625L 37.334999 13.935C 37.51918 13.449423 37.984417 13.128309 38.50375 13.128309C 39.023083 13.128309 39.488319 13.449423 39.672501 13.935L 40.857502 17.065001"></path></g></g></g></g></g><path id="whzndssbpr3et" d="M65.283 12.757a.35.35 0 0 0 .584.157l5.203-5.141-6.183 3.523.396 1.461zm-2.216-11.7a.35.35 0 0 0-.522.305v3.111l3.276-1.868-2.754-1.548zm3.728 2.105l-4.25 2.421v2.445l6.391-3.644-2.141-1.222zm4.708 3.303a.35.35 0 0 0 0-.609l-1.592-.9-7.365 4.199v1.782a.35.35 0 0 0 .523.305l8.435-4.777z M44.542 2.513c0-.433.355-.783.792-.783s.792.35.792.783-.355.783-.792.783-.792-.35-.792-.783zm59.171 0c0-.433.355-.783.792-.783s.792.35.792.783-.355.783-.792.783-.792-.35-.792-.783zm-85.951 7.636h-1.27v-.487c-.276.201-.864.609-1.881.609-1.202 0-2.274-.794-2.137-2.078.118-1.106 1.153-1.584 1.848-1.727l2.17-.345c0-.539-.29-.956-1.064-1.006s-1.21.305-1.571 1.017l-1.124-.605c1.218-2.631 5.029-1.764 5.029.414v4.207zm-1.27-2.86c.006.396-.062 1.112-.819 1.59-.587.37-1.841.299-1.903-.395-.049-.555.461-.791.906-.898l1.816-.297zm72.662 2.86h-1.27v-.487c-.276.201-.864.609-1.881.609-1.202 0-2.274-.794-2.137-2.078.118-1.106 1.153-1.584 1.848-1.727l2.17-.345c0-.539-.29-.956-1.064-1.006s-1.21.305-1.571 1.017l-1.124-.605c1.218-2.631 5.029-1.764 5.029.414v4.207zm-1.27-2.86c.006.396-.062 1.112-.82 1.59-.587.37-1.841.299-1.903-.395-.049-.555.461-.791.906-.898l1.816-.297zM99.096 10.149H97.85v-8.45h1.246v4.895l2.68-2.559h1.738l-2.633 2.535 2.715 3.578h-1.556l-2.077-2.707-.867.844v1.863zm6.053-6.114h-1.255v6.113h1.255V4.035zm-59.2 0h-1.255v6.113h1.255V4.035zm5.584 6.113V1.697h1.255v2.695c.361-.346 1-.485 1.47-.485 1.452 0 2.477 1.082 2.457 2.448v3.792h-1.27v-3.68c0-.408-.214-1.339-1.315-1.339-.968 0-1.342.756-1.342 1.339v3.681h-1.255zm-4.76-4.894V4.039h.621a.45.45 0 0 0 .45-.45v-.855h1.251v1.305h1.309v1.215h-1.309v3.109c0 .293.105.664.648.664.365 0 .531-.035.736-.07v1.137s-.361.113-.857.113c-1.398 0-1.777-1.051-1.777-1.788V5.254h-1.071zM36.528 4.039h-1.394l2.191 6.106h1.125l1.234-3.918 1.238 3.918h1.129l2.188-6.106h-1.383l-1.359 3.93-1.256-3.93h-1.124l-1.242 3.957-1.348-3.957zM26.212 7.141c-.02 1.566 1.187 3.129 3.223 3.129 1.566 0 2.383-.918 2.734-1.719L31.172 8c-.315.399-.801 1.094-1.738 1.094-1.145 0-1.825-.781-1.891-1.52h4.625c.074-.284.148-.995-.03-1.559-.336-1.064-1.221-2.102-2.839-2.102s-3.088 1.152-3.088 3.227zm1.363-.75h3.348c-.055-.43-.566-1.301-1.623-1.301a1.79 1.79 0 0 0-1.725 1.301zm-8.758.75c.038 1.758 1.277 3.133 3.145 3.133 1.074 0 1.723-.477 1.961-.672v.547h1.242V1.703h-1.258v2.888c-.414-.36-1.062-.68-1.93-.68-1.91 0-3.198 1.473-3.16 3.23zm1.309-.08c0 1.119.723 1.978 1.836 1.978a1.88 1.88 0 0 0 1.94-1.904c0-1.371-1.011-1.99-1.972-1.99s-1.805.798-1.805 1.916zm76.683-.028C96.771 5.275 95.532 3.9 93.664 3.9c-1.074 0-1.723.477-1.961.672v-.547h-1.242v8.22h1.258V9.583c.414.36 1.063.68 1.93.68 1.91 0 3.198-1.473 3.16-3.23zm-1.309.08c0-1.119-.723-1.978-1.836-1.978a1.88 1.88 0 0 0-1.94 1.904c0 1.371 1.011 1.99 1.972 1.99S95.5 8.231 95.5 7.113zM106.441 10.173V4.036h1.254v.382c.361-.346 1-.485 1.47-.485 1.452 0 2.477 1.082 2.457 2.448v3.792h-1.27V6.492c0-.408-.214-1.339-1.315-1.339-.969 0-1.342.756-1.342 1.339v3.681h-1.254zm-30.383-.021V1.824h1.084l4.215 5.777V1.824h1.32v8.328h-1.094l-4.207-5.796v5.796h-1.319zM5.24 10.149H4V2.377h1.014l2.664 3.597 2.654-3.592h1.03v7.766h-1.256V4.762L7.678 8.068 5.24 4.742v5.407z" transform="translate(20, 878)" fill="#80808088" stroke="none"></path></svg>