<svg xmlns="http://www.w3.org/2000/svg" width="1200" height="630" viewBox="0 0 1200 630">
  <defs>
    <linearGradient id="bg" x1="0%" y1="0%" x2="100%" y2="100%">
      <stop offset="0%" style="stop-color:#0d0900"/>
      <stop offset="100%" style="stop-color:#1a1100"/>
    </linearGradient>
    <linearGradient id="accent" x1="0%" y1="0%" x2="100%" y2="0%">
      <stop offset="0%" style="stop-color:#f59e0b"/>
      <stop offset="100%" style="stop-color:#fbbf24"/>
    </linearGradient>
    <linearGradient id="aal1g" x1="0%" y1="0%" x2="0%" y2="100%">
      <stop offset="0%" style="stop-color:#f59e0b;stop-opacity:0.12"/>
      <stop offset="100%" style="stop-color:#f59e0b;stop-opacity:0.02"/>
    </linearGradient>
    <linearGradient id="aal2g" x1="0%" y1="0%" x2="0%" y2="100%">
      <stop offset="0%" style="stop-color:#f59e0b;stop-opacity:0.2"/>
      <stop offset="100%" style="stop-color:#f59e0b;stop-opacity:0.04"/>
    </linearGradient>
    <linearGradient id="aal3g" x1="0%" y1="0%" x2="0%" y2="100%">
      <stop offset="0%" style="stop-color:#fbbf24;stop-opacity:0.26"/>
      <stop offset="100%" style="stop-color:#fbbf24;stop-opacity:0.06"/>
    </linearGradient>
    <marker id="arr" markerWidth="8" markerHeight="8" refX="6" refY="3" orient="auto">
      <path d="M0,0 L0,6 L8,3 z" fill="#f59e0b"/>
    </marker>
    <marker id="arrr" markerWidth="8" markerHeight="8" refX="6" refY="3" orient="auto">
      <path d="M0,0 L0,6 L8,3 z" fill="#ef4444"/>
    </marker>
    <marker id="arrs" markerWidth="8" markerHeight="8" refX="6" refY="3" orient="auto">
      <path d="M0,0 L0,6 L8,3 z" fill="#94a3b8"/>
    </marker>
  </defs>

  <!-- Background -->
  <rect width="1200" height="630" fill="url(#bg)"/>

  <!-- Grid -->
  <g stroke="#ffffff" stroke-opacity="0.025" stroke-width="1">
    <line x1="0" y1="105" x2="1200" y2="105"/>
    <line x1="0" y1="210" x2="1200" y2="210"/>
    <line x1="0" y1="315" x2="1200" y2="315"/>
    <line x1="0" y1="420" x2="1200" y2="420"/>
    <line x1="0" y1="525" x2="1200" y2="525"/>
    <line x1="240" y1="0" x2="240" y2="630"/>
    <line x1="480" y1="0" x2="480" y2="630"/>
    <line x1="720" y1="0" x2="720" y2="630"/>
    <line x1="960" y1="0" x2="960" y2="630"/>
  </g>

  <!-- Glow -->
  <ellipse cx="280" cy="380" rx="220" ry="170" fill="#f59e0b" fill-opacity="0.04"/>
  <ellipse cx="950" cy="300" rx="200" ry="160" fill="#f59e0b" fill-opacity="0.04"/>
  <ellipse cx="1050" cy="520" rx="120" ry="80" fill="#ef4444" fill-opacity="0.04"/>

  <!-- Panel divider -->
  <line x1="575" y1="100" x2="575" y2="615" stroke="#2a1e00" stroke-width="1"/>

  <!-- ===== TITLE BAR ===== -->
  <rect x="0" y="0" width="1200" height="88" fill="#080600" fill-opacity="0.85"/>
  <rect x="0" y="85" width="1200" height="3" fill="url(#accent)"/>
  <text x="40" y="40" font-family="system-ui, -apple-system, sans-serif" font-size="13" font-weight="600" fill="#f59e0b" letter-spacing="3">NIST SP 800-63B-4</text>
  <text x="40" y="68" font-family="system-ui, -apple-system, sans-serif" font-size="27" font-weight="700" fill="#fffbeb">What "Strong Authentication" Actually Means</text>
  <rect x="1010" y="26" width="160" height="26" rx="13" fill="#f59e0b" fill-opacity="0.15" stroke="#f59e0b" stroke-width="1"/>
  <text x="1090" y="43" text-anchor="middle" font-family="monospace" font-size="12" fill="#fcd34d">Authentication</text>

  <!-- ===== LEFT: AAL COMPARISON ===== -->
  <text x="285" y="114" text-anchor="middle" font-family="monospace" font-size="11" fill="#44320a" letter-spacing="2">AUTHENTICATION ASSURANCE LEVELS</text>

  <!-- AAL1 col (center x=110) -->
  <rect x="32" y="124" width="158" height="28" rx="7" fill="#f59e0b" fill-opacity="0.12" stroke="#f59e0b" stroke-width="1" stroke-opacity="0.5"/>
  <text x="111" y="143" text-anchor="middle" font-family="monospace" font-size="13" font-weight="700" fill="#fcd34d">AAL1</text>

  <rect x="32" y="156" width="158" height="380" rx="8" fill="url(#aal1g)" stroke="#f59e0b" stroke-width="1" stroke-opacity="0.3"/>
  <text x="111" y="178" text-anchor="middle" font-family="monospace" font-size="10" fill="#78350f">FACTORS</text>
  <text x="111" y="194" text-anchor="middle" font-family="monospace" font-size="11" fill="#d97706">Single or multi</text>
  <line x1="42" y1="202" x2="180" y2="202" stroke="#2a1e00" stroke-width="1"/>
  <text x="111" y="220" text-anchor="middle" font-family="monospace" font-size="10" fill="#78350f">PHISHING RESIST.</text>
  <text x="111" y="236" text-anchor="middle" font-family="monospace" font-size="11" fill="#6b7280">Not required</text>
  <line x1="42" y1="244" x2="180" y2="244" stroke="#2a1e00" stroke-width="1"/>
  <text x="111" y="262" text-anchor="middle" font-family="monospace" font-size="10" fill="#78350f">SESSION</text>
  <text x="111" y="278" text-anchor="middle" font-family="monospace" font-size="11" fill="#6b7280">30 days</text>
  <text x="111" y="294" text-anchor="middle" font-family="monospace" font-size="10" fill="#4b5563">No inactivity req.</text>
  <line x1="42" y1="302" x2="180" y2="302" stroke="#2a1e00" stroke-width="1"/>
  <text x="111" y="320" text-anchor="middle" font-family="monospace" font-size="10" fill="#78350f">AUTHENTICATORS</text>
  <text x="50" y="340" font-family="monospace" font-size="10" fill="#6b7280">· Memorized secret</text>
  <text x="50" y="356" font-family="monospace" font-size="10" fill="#6b7280">· Look-up codes</text>
  <text x="50" y="372" font-family="monospace" font-size="10" fill="#6b7280">· Out-of-band (SMS)</text>
  <text x="50" y="388" font-family="monospace" font-size="10" fill="#6b7280">· TOTP / HOTP</text>
  <text x="50" y="404" font-family="monospace" font-size="10" fill="#6b7280">· Single-factor SW</text>
  <text x="50" y="420" font-family="monospace" font-size="10" fill="#6b7280">· Single-factor HW</text>
  <line x1="42" y1="432" x2="180" y2="432" stroke="#2a1e00" stroke-width="1"/>
  <text x="111" y="450" text-anchor="middle" font-family="monospace" font-size="10" fill="#4b5563">e.g. password only</text>
  <text x="111" y="466" text-anchor="middle" font-family="monospace" font-size="10" fill="#4b5563">most consumer apps</text>
  <rect x="50" y="476" width="122" height="18" rx="9" fill="#ef4444" fill-opacity="0.08" stroke="#ef4444" stroke-width="1" stroke-opacity="0.4"/>
  <text x="111" y="489" text-anchor="middle" font-family="monospace" font-size="9" fill="#f87171">Phishable at all tiers</text>
  <text x="111" y="514" text-anchor="middle" font-family="monospace" font-size="9" fill="#374151">Reauth: 30 days</text>

  <!-- AAL2 col (center x=300) -->
  <rect x="202" y="124" width="158" height="28" rx="7" fill="#f59e0b" fill-opacity="0.2" stroke="#f59e0b" stroke-width="1.2"/>
  <text x="281" y="143" text-anchor="middle" font-family="monospace" font-size="13" font-weight="700" fill="#fbbf24">AAL2</text>

  <rect x="202" y="156" width="158" height="380" rx="8" fill="url(#aal2g)" stroke="#f59e0b" stroke-width="1.2" stroke-opacity="0.55"/>
  <text x="281" y="178" text-anchor="middle" font-family="monospace" font-size="10" fill="#78350f">FACTORS</text>
  <text x="281" y="194" text-anchor="middle" font-family="monospace" font-size="11" fill="#fbbf24">2 distinct required</text>
  <line x1="212" y1="202" x2="350" y2="202" stroke="#2a1e00" stroke-width="1"/>
  <text x="281" y="220" text-anchor="middle" font-family="monospace" font-size="10" fill="#78350f">PHISHING RESIST.</text>
  <text x="281" y="236" text-anchor="middle" font-family="monospace" font-size="11" fill="#d97706">Must be offered</text>
  <line x1="212" y1="244" x2="350" y2="244" stroke="#2a1e00" stroke-width="1"/>
  <text x="281" y="262" text-anchor="middle" font-family="monospace" font-size="10" fill="#78350f">SESSION</text>
  <text x="281" y="278" text-anchor="middle" font-family="monospace" font-size="11" fill="#d97706">24 hours</text>
  <text x="281" y="294" text-anchor="middle" font-family="monospace" font-size="10" fill="#6b7280">1 hr inactivity</text>
  <line x1="212" y1="302" x2="350" y2="302" stroke="#2a1e00" stroke-width="1"/>
  <text x="281" y="320" text-anchor="middle" font-family="monospace" font-size="10" fill="#78350f">AUTHENTICATORS</text>
  <text x="220" y="340" font-family="monospace" font-size="10" fill="#6b7280">All AAL1 types +</text>
  <text x="220" y="356" font-family="monospace" font-size="10" fill="#fbbf24">· Passkey (syncable)</text>
  <text x="220" y="372" font-family="monospace" font-size="10" fill="#fbbf24">· Multi-factor SW</text>
  <text x="220" y="388" font-family="monospace" font-size="10" fill="#fbbf24">· Multi-factor HW</text>
  <text x="220" y="404" font-family="monospace" font-size="10" fill="#6b7280">· FIDO2 (platform)</text>
  <line x1="212" y1="420" x2="350" y2="420" stroke="#2a1e00" stroke-width="1"/>
  <rect x="220" y="428" width="122" height="18" rx="9" fill="#f59e0b" fill-opacity="0.15" stroke="#f59e0b" stroke-width="1"/>
  <text x="281" y="441" text-anchor="middle" font-family="monospace" font-size="9" fill="#fcd34d">Passkeys NOW explicit</text>
  <text x="281" y="466" text-anchor="middle" font-family="monospace" font-size="10" fill="#4b5563">e.g. enterprise SSO</text>
  <text x="281" y="482" text-anchor="middle" font-family="monospace" font-size="10" fill="#4b5563">healthcare, finance</text>
  <text x="281" y="514" text-anchor="middle" font-family="monospace" font-size="9" fill="#374151">Reauth: 24 hours</text>

  <!-- AAL3 col (center x=490) -->
  <rect x="372" y="124" width="158" height="28" rx="7" fill="#fbbf24" fill-opacity="0.22" stroke="#fbbf24" stroke-width="1.5"/>
  <text x="451" y="143" text-anchor="middle" font-family="monospace" font-size="13" font-weight="700" fill="#fef3c7">AAL3</text>

  <rect x="372" y="156" width="158" height="380" rx="8" fill="url(#aal3g)" stroke="#fbbf24" stroke-width="1.5"/>
  <text x="451" y="178" text-anchor="middle" font-family="monospace" font-size="10" fill="#78350f">FACTORS</text>
  <text x="451" y="194" text-anchor="middle" font-family="monospace" font-size="11" fill="#fef3c7">2 (HW crypto req.)</text>
  <line x1="382" y1="202" x2="520" y2="202" stroke="#2a1e00" stroke-width="1"/>
  <text x="451" y="220" text-anchor="middle" font-family="monospace" font-size="10" fill="#78350f">PHISHING RESIST.</text>
  <text x="451" y="236" text-anchor="middle" font-family="monospace" font-size="11" fill="#fbbf24">Mandatory</text>
  <line x1="382" y1="244" x2="520" y2="244" stroke="#2a1e00" stroke-width="1"/>
  <text x="451" y="262" text-anchor="middle" font-family="monospace" font-size="10" fill="#78350f">SESSION</text>
  <text x="451" y="278" text-anchor="middle" font-family="monospace" font-size="11" fill="#fbbf24">12 hours</text>
  <text x="451" y="294" text-anchor="middle" font-family="monospace" font-size="10" fill="#d97706">15 min inactivity</text>
  <line x1="382" y1="302" x2="520" y2="302" stroke="#2a1e00" stroke-width="1"/>
  <text x="451" y="320" text-anchor="middle" font-family="monospace" font-size="10" fill="#78350f">AUTHENTICATORS</text>
  <text x="390" y="340" font-family="monospace" font-size="10" fill="#fbbf24">· Hardware key (FIDO2)</text>
  <text x="390" y="356" font-family="monospace" font-size="10" fill="#fbbf24">· PIV / SmartCard</text>
  <text x="390" y="372" font-family="monospace" font-size="10" fill="#fbbf24">· Non-exportable key</text>
  <text x="390" y="388" font-family="monospace" font-size="10" fill="#6b7280">Hardware-bound only</text>
  <text x="390" y="404" font-family="monospace" font-size="10" fill="#6b7280">Verifier impersonation</text>
  <text x="390" y="420" font-family="monospace" font-size="10" fill="#6b7280">protection required</text>
  <line x1="382" y1="432" x2="520" y2="432" stroke="#2a1e00" stroke-width="1"/>
  <rect x="390" y="440" width="122" height="18" rx="9" fill="#fbbf24" fill-opacity="0.15" stroke="#fbbf24" stroke-width="1"/>
  <text x="451" y="453" text-anchor="middle" font-family="monospace" font-size="9" fill="#fef3c7">Phishing-resistant</text>
  <text x="451" y="474" text-anchor="middle" font-family="monospace" font-size="10" fill="#4b5563">e.g. govt, critical infra</text>
  <text x="451" y="490" text-anchor="middle" font-family="monospace" font-size="10" fill="#4b5563">national security</text>
  <text x="451" y="514" text-anchor="middle" font-family="monospace" font-size="9" fill="#374151">Reauth: 12 hours</text>

  <!-- ===== RIGHT: ATTACK FLOW + RULES ===== -->
  <text x="885" y="114" text-anchor="middle" font-family="monospace" font-size="11" fill="#44320a" letter-spacing="2">AITM ATTACK &amp; KEY RULES</text>

  <!-- AiTM flow diagram -->
  <rect x="590" y="124" width="580" height="220" rx="8" fill="#0d0900" stroke="#2a1e00" stroke-width="1"/>
  <text x="880" y="145" text-anchor="middle" font-family="monospace" font-size="11" fill="#78350f">AiTM PROXY ATTACK (Evilginx / Modlishka)</text>

  <!-- User box -->
  <rect x="614" y="158" width="110" height="50" rx="7" fill="#1a1100" stroke="#f59e0b" stroke-width="1.2"/>
  <circle cx="637" cy="174" r="8" fill="#f59e0b" fill-opacity="0.2" stroke="#f59e0b" stroke-width="1"/>
  <circle cx="637" cy="173" r="4" fill="#fbbf24"/>
  <path d="M630 183 Q637 179 644 183" stroke="#fbbf24" stroke-width="1" fill="none" stroke-linecap="round"/>
  <text x="669" y="174" font-family="monospace" font-size="10" fill="#fcd34d">User</text>
  <text x="669" y="188" font-family="monospace" font-size="9" fill="#6b7280">pw + TOTP</text>
  <text x="669" y="200" font-family="monospace" font-size="9" fill="#6b7280">entered</text>

  <!-- Arrow User → Proxy -->
  <line x1="727" y1="183" x2="776" y2="183" stroke="#ef4444" stroke-width="1.5" marker-end="url(#arrr)"/>
  <text x="751" y="176" text-anchor="middle" font-family="monospace" font-size="8" fill="#ef4444">relayed</text>

  <!-- Proxy box -->
  <rect x="779" y="158" width="130" height="50" rx="7" fill="#1a0505" stroke="#ef4444" stroke-width="1.5"/>
  <text x="844" y="176" text-anchor="middle" font-family="monospace" font-size="10" font-weight="700" fill="#fca5a5">AiTM Proxy</text>
  <text x="844" y="191" text-anchor="middle" font-family="monospace" font-size="9" fill="#7f1d1d">fake site</text>
  <text x="844" y="203" text-anchor="middle" font-family="monospace" font-size="9" fill="#7f1d1d">forwards live</text>

  <!-- Arrow Proxy → Server -->
  <line x1="912" y1="183" x2="961" y2="183" stroke="#ef4444" stroke-width="1.5" marker-end="url(#arrr)"/>
  <text x="936" y="176" text-anchor="middle" font-family="monospace" font-size="8" fill="#ef4444">forwarded</text>

  <!-- Server box -->
  <rect x="964" y="158" width="110" height="50" rx="7" fill="#1a1100" stroke="#f59e0b" stroke-width="1.2"/>
  <rect x="980" y="168" width="18" height="22" rx="3" fill="#f59e0b" fill-opacity="0.2" stroke="#f59e0b" stroke-width="1"/>
  <line x1="984" y1="175" x2="994" y2="175" stroke="#fbbf24" stroke-width="1"/>
  <line x1="984" y1="180" x2="994" y2="180" stroke="#fbbf24" stroke-width="1"/>
  <line x1="984" y1="185" x2="991" y2="185" stroke="#fbbf24" stroke-width="1"/>
  <text x="1005" y="176" font-family="monospace" font-size="10" fill="#fcd34d">Real</text>
  <text x="1005" y="189" font-family="monospace" font-size="10" fill="#fcd34d">Server</text>
  <text x="1019" y="203" text-anchor="middle" font-family="monospace" font-size="9" fill="#6b7280">login ok</text>

  <!-- Return arrow Server → Proxy (session token) -->
  <line x1="964" y1="218" x2="912" y2="228" stroke="#94a3b8" stroke-width="1.2" stroke-dasharray="4,3" marker-end="url(#arrs)"/>
  <text x="938" y="216" text-anchor="middle" font-family="monospace" font-size="8" fill="#475569">session token</text>

  <!-- Proxy harvests -->
  <rect x="779" y="238" width="130" height="22" rx="4" fill="#7f1d1d" fill-opacity="0.3" stroke="#ef4444" stroke-width="1"/>
  <text x="844" y="253" text-anchor="middle" font-family="monospace" font-size="10" fill="#fca5a5">attacker holds session</text>

  <!-- TOTP doesn't help note -->
  <rect x="614" y="272" width="460" height="28" rx="6" fill="#1a0505" stroke="#ef4444" stroke-width="1" stroke-opacity="0.6"/>
  <text x="844" y="289" text-anchor="middle" font-family="monospace" font-size="11" fill="#f87171">TOTP was valid, MFA passed — attacker is authenticated. TOTP does not help here.</text>

  <!-- Attack types row -->
  <rect x="590" y="360" width="580" height="54" rx="7" fill="#0d0900" stroke="#2a1e00" stroke-width="1"/>
  <text x="608" y="380" font-family="monospace" font-size="10" fill="#78350f">ATTACK PATTERNS NOT BLOCKED BY NON-PHISHING-RESISTANT MFA:</text>
  <rect x="608" y="388" width="130" height="18" rx="9" fill="#ef4444" fill-opacity="0.1" stroke="#ef4444" stroke-width="1"/>
  <text x="673" y="401" text-anchor="middle" font-family="monospace" font-size="10" fill="#fca5a5">AiTM Proxy relay</text>
  <rect x="748" y="388" width="116" height="18" rx="9" fill="#ef4444" fill-opacity="0.1" stroke="#ef4444" stroke-width="1"/>
  <text x="806" y="401" text-anchor="middle" font-family="monospace" font-size="10" fill="#fca5a5">Push notification fatigue</text>
  <rect x="874" y="388" width="90" height="18" rx="9" fill="#ef4444" fill-opacity="0.1" stroke="#ef4444" stroke-width="1"/>
  <text x="919" y="401" text-anchor="middle" font-family="monospace" font-size="10" fill="#fca5a5">SIM swap</text>
  <rect x="974" y="388" width="116" height="18" rx="9" fill="#ef4444" fill-opacity="0.1" stroke="#ef4444" stroke-width="1"/>
  <text x="1032" y="401" text-anchor="middle" font-family="monospace" font-size="10" fill="#fca5a5">SS7 interception</text>

  <!-- Phishing-resistant table -->
  <rect x="590" y="428" width="280" height="160" rx="7" fill="#0d0900" stroke="#2a1e00" stroke-width="1"/>
  <text x="730" y="448" text-anchor="middle" font-family="monospace" font-size="10" fill="#78350f">PHISHING RESISTANCE?</text>
  <line x1="600" y1="454" x2="860" y2="454" stroke="#2a1e00" stroke-width="1"/>
  <text x="620" y="470" font-family="monospace" font-size="10" fill="#6b7280">Password + SMS OTP</text>
  <rect x="782" y="460" width="16" height="16" rx="3" fill="#ef4444" fill-opacity="0.15"/>
  <text x="790" y="472" text-anchor="middle" font-family="monospace" font-size="12" fill="#ef4444">✗</text>
  <text x="620" y="490" font-family="monospace" font-size="10" fill="#6b7280">Password + TOTP</text>
  <rect x="782" y="480" width="16" height="16" rx="3" fill="#ef4444" fill-opacity="0.15"/>
  <text x="790" y="492" text-anchor="middle" font-family="monospace" font-size="12" fill="#ef4444">✗</text>
  <text x="620" y="510" font-family="monospace" font-size="10" fill="#fbbf24">Passkey (platform)</text>
  <rect x="782" y="500" width="16" height="16" rx="3" fill="#10b981" fill-opacity="0.15"/>
  <text x="790" y="512" text-anchor="middle" font-family="monospace" font-size="12" fill="#10b981">✓</text>
  <text x="620" y="530" font-family="monospace" font-size="10" fill="#fbbf24">FIDO2 Hardware key</text>
  <rect x="782" y="520" width="16" height="16" rx="3" fill="#10b981" fill-opacity="0.15"/>
  <text x="790" y="532" text-anchor="middle" font-family="monospace" font-size="12" fill="#10b981">✓</text>
  <text x="620" y="550" font-family="monospace" font-size="10" fill="#fbbf24">PIV / SmartCard</text>
  <rect x="782" y="540" width="16" height="16" rx="3" fill="#10b981" fill-opacity="0.15"/>
  <text x="790" y="552" text-anchor="middle" font-family="monospace" font-size="12" fill="#10b981">✓</text>
  <text x="620" y="576" font-family="monospace" font-size="10" fill="#4b5563">Key is bound to origin — relay fails</text>

  <!-- Password rules box -->
  <rect x="882" y="428" width="288" height="160" rx="7" fill="#0d0900" stroke="#2a1e00" stroke-width="1"/>
  <text x="1026" y="448" text-anchor="middle" font-family="monospace" font-size="10" fill="#78350f">PASSWORD RULES (v4)</text>
  <line x1="892" y1="454" x2="1160" y2="454" stroke="#2a1e00" stroke-width="1"/>
  <rect x="900" y="462" width="68" height="16" rx="8" fill="#ef4444" fill-opacity="0.12" stroke="#ef4444" stroke-width="1"/>
  <text x="934" y="474" text-anchor="middle" font-family="monospace" font-size="9" fill="#fca5a5">BANNED</text>
  <text x="978" y="474" font-family="monospace" font-size="10" fill="#6b7280">Complexity rules</text>
  <rect x="900" y="484" width="68" height="16" rx="8" fill="#ef4444" fill-opacity="0.12" stroke="#ef4444" stroke-width="1"/>
  <text x="934" y="496" text-anchor="middle" font-family="monospace" font-size="9" fill="#fca5a5">BANNED</text>
  <text x="978" y="496" font-family="monospace" font-size="10" fill="#6b7280">Forced periodic rotation</text>
  <rect x="900" y="506" width="68" height="16" rx="8" fill="#ef4444" fill-opacity="0.12" stroke="#ef4444" stroke-width="1"/>
  <text x="934" y="518" text-anchor="middle" font-family="monospace" font-size="9" fill="#fca5a5">BANNED</text>
  <text x="978" y="518" font-family="monospace" font-size="10" fill="#6b7280">Hints / security Qs</text>
  <rect x="900" y="528" width="68" height="16" rx="8" fill="#f59e0b" fill-opacity="0.12" stroke="#f59e0b" stroke-width="1"/>
  <text x="934" y="540" text-anchor="middle" font-family="monospace" font-size="9" fill="#fcd34d">REQUIRED</text>
  <text x="978" y="540" font-family="monospace" font-size="10" fill="#d97706">Min 15 chars (was 8)</text>
  <rect x="900" y="550" width="68" height="16" rx="8" fill="#f59e0b" fill-opacity="0.12" stroke="#f59e0b" stroke-width="1"/>
  <text x="934" y="562" text-anchor="middle" font-family="monospace" font-size="9" fill="#fcd34d">REQUIRED</text>
  <text x="978" y="562" font-family="monospace" font-size="10" fill="#d97706">Breach corpus check</text>
  <text x="892" y="582" font-family="monospace" font-size="10" fill="#4b5563">Support 64+ char passwords. Allow all printable Unicode.</text>
</svg>
