<?xml version="1.0" encoding="utf-8" standalone="yes"?>
<!DOCTYPE svg PUBLIC "-//W3C//DTD SVG 1.1//EN" "http://www.w3.org/Graphics/SVG/1.1/DTD/svg11.dtd">
<svg style="fill:none;stroke:none;fill-rule:evenodd;clip-rule:evenodd;stroke-linecap:round;stroke-linejoin:round;stroke-miterlimit:1.5;" version="1.1" xmlns="http://www.w3.org/2000/svg" xmlns:xlink="http://www.w3.org/1999/xlink" width="936" height="726" viewBox="0 0 936 726"><style class="text-font-style fontImports" data-font-family="Roboto">@import url(https://fonts.googleapis.com/css2?family=Roboto:wght@400;700&amp;amp;display=block);</style><g id="items" style="isolation: isolate"><g id="blend" style="mix-blend-mode: normal"><g id="g-root-cp_0_g-0_1464ytkklgu8f-fill" data-item-order="-559430" transform="translate(356, 158)"><g id="cp_0_g-0_1464ytkklgu8f-fill-merged" stroke="none" fill="#f5f5f5" fill-opacity="1"><g><path d="M460 64L550 10 V25.204L472 72.009 V126L382 180.012 V233.982L292 288.009 V342L202 396.009 V450.109L100 511.609L10 457.609 V442L100 496L190 442 V388L280 334 V280L370 226 V172.003L460 118 V64"></path></g></g><g id="cp_0_g-0_1464ytkklgu8f-fill-merged" stroke="none" fill="#f5f5f5" fill-opacity="1"><g><path d="M460 64L370 10 V64L460 118 V64"></path></g></g><g id="cp_0_g-0_1464ytkklgu8f-fill-merged" stroke="none" fill="#f5f5f5" fill-opacity="1"><g><path d="M370 172L280 118 V172L370 226 V172"></path></g></g><g id="cp_0_g-0_1464ytkklgu8f-fill-merged" stroke="none" fill="#f5f5f5" fill-opacity="1"><g><path d="M280 280L190 226 V280L280 334 V280"></path></g></g><g id="cp_0_g-0_1464ytkklgu8f-fill-merged" stroke="none" fill="#f5f5f5" fill-opacity="1"><g><path d="M190 388L100 334 V389L190 442 V388"></path></g></g></g><g id="g-root-cp_1_g-1_zqbgp4klgv0o-fill" data-item-order="-559418" transform="translate(356, 536)"><g id="cp_1_g-1_zqbgp4klgv0o-fill-merged" stroke="none" fill="#edf4ff" fill-opacity="1"><g><path d="M100 10L10 64L100 118L190 64L100 10 M29 64L100 22L171 64L100 106L29 64"></path></g></g></g><g id="g-root-cp_2_g-2_vahykoklgvsx-fill" data-item-order="-559414" transform="translate(446, 428)"><g id="cp_2_g-2_vahykoklgvsx-fill-merged" stroke="none" fill="#e3fff2" fill-opacity="1"><g><path d="M100 10L10 64L100 118L190 64L100 10 M29 64L100 22L171 64L100 106L29 64"></path></g></g></g><g id="g-root-cp_3_g-3_vahykoklgvsy-fill" data-item-order="-559410" transform="translate(536, 320)"><g id="cp_3_g-3_vahykoklgvsy-fill-merged" stroke="none" fill="#f4ffdc" fill-opacity="1"><g><path d="M100 10L10 64L100 118L190 64L100 10 M29 64L100 22L171 64L100 106L29 64"></path></g></g></g><g id="g-root-cp_4_g-4_meuybsklgwln-fill" data-item-order="-559406" transform="translate(626, 212)"><g id="cp_4_g-4_meuybsklgwln-fill-merged" stroke="none" fill="#e8f9ff" fill-opacity="1"><g><path d="M100 10L10 64L100 118L190 64L100 10 M29 64L100 22L171 64L100 106L29 64"></path></g></g></g><g id="g-root-cp_5_g-5_hznxagklgu84-fill" data-item-order="-559402" transform="translate(716, 104)"><g id="cp_5_g-5_hznxagklgu84-fill-merged" stroke="none" fill="#f3f0ff" fill-opacity="1"><g><path d="M100 10L10 64L100 118L190 64L100 10 M29 64L100 22L171 64L100 106L29 64"></path></g></g></g><g id="g-root-cp_2_text-2_hznxagklgu85-fill" data-item-order="-559388" transform="translate(170, 446)"><g id="cp_2_text-2_hznxagklgu85-fill-merged" stroke="none" fill="#e3fff2" fill-opacity="1"><g><path d="M10 10 H16 V82 H10 V10"></path></g></g></g><g id="g-root-cp_3_text-3_940x1kklgv0u-fill" data-item-order="-559374" transform="translate(260, 338)"><g id="cp_3_text-3_940x1kklgv0u-fill-merged" stroke="none" fill="#f4ffdc" fill-opacity="1"><g><path d="M10 10 H16 V82 H10 V10"></path></g></g></g><g id="g-root-cp_1_text-1_4o7ex4klgvt3-fill" data-item-order="-559360" transform="translate(80, 560)"><g id="cp_1_text-1_4o7ex4klgvt3-fill-merged" stroke="none" fill="#edf4ff" fill-opacity="1"><g><path d="M10 10 H16 V82 H10 V10"></path></g></g></g><g id="g-root-cp_4_text-4_8dwsoklgwlc-fill" data-item-order="-559344" transform="translate(350, 230)"><g id="cp_4_text-4_8dwsoklgwlc-fill-merged" stroke="none" fill="#e8f9ff" fill-opacity="1"><g><path d="M10 10 H16 V82 H10 V10"></path></g></g></g><g id="g-root-cp_5_text-5_8dwsoklgwld-fill" data-item-order="-559330" transform="translate(440, 122)"><g id="cp_5_text-5_8dwsoklgwld-fill-merged" stroke="none" fill="#f3f0ff" fill-opacity="1"><g><path d="M10 10 H16 V82 H10 V10"></path></g></g></g><g id="g-root-tx_tailoras_qwjyvckl5nus-fill" data-item-order="0" transform="translate(368, 230)"><g id="tx_tailoras_qwjyvckl5nus-fill-merged" stroke="none" fill="#1eabda" fill-opacity="1"><g><text style="font: 20px Roboto, sans-serif; white-space: pre;" font-size="20px" font-family="Roboto, sans-serif"><tspan x="12" y="34" dominant-baseline="ideographic">Tailor Assurance Levels</tspan></text></g></g></g><g id="g-root-ic_proc_1cws9jckl2scr-fill" data-item-order="0" transform="translate(692, 242)"></g><g id="g-root-tx_conducta_hrjubskl7025-fill" data-item-order="0" transform="translate(368, 266)"><g id="tx_conducta_hrjubskl7025-fill-merged" stroke="none" fill="#484848" fill-opacity="1"><g><text style="font: 15px Roboto, sans-serif; white-space: pre;" font-size="15px" font-family="Roboto, sans-serif"><tspan x="12" y="28" dominant-baseline="ideographic">Conduct assessments and adjust </tspan><tspan x="12" y="46" dominant-baseline="ideographic">assurance levels.</tspan></text></g></g></g><g id="g-root-tx_4_dbqc7ckl70ue-fill" data-item-order="0" transform="translate(296, 230)"><g id="tx_4_dbqc7ckl70ue-fill-merged" stroke="none" fill="#1eabda" fill-opacity="1"><g><text style="font: 25px Roboto, sans-serif; white-space: pre;" font-size="25px" font-family="Roboto, sans-serif"><tspan x="14.97" y="42" dominant-baseline="ideographic">4</tspan></text></g></g></g><g id="g-root-tx_3_1hiuiiwkl5nuo-fill" data-item-order="0" transform="translate(206, 338)"><g id="tx_3_1hiuiiwkl5nuo-fill-merged" stroke="none" fill="#92bd39" fill-opacity="1"><g><text style="font: 25px Roboto, sans-serif; white-space: pre;" font-size="25px" font-family="Roboto, sans-serif"><tspan x="14.97" y="42" dominant-baseline="ideographic">3</tspan></text></g></g></g><g id="g-root-tx_evaluate_9tu0kl72fc-fill" data-item-order="0" transform="translate(458, 158)"><g id="tx_evaluate_9tu0kl72fc-fill-merged" stroke="none" fill="#484848" fill-opacity="1"><g><text style="font: 15px Roboto, sans-serif; white-space: pre;" font-size="15px" font-family="Roboto, sans-serif"><tspan x="12" y="28" dominant-baseline="ideographic">Evaluate and improve the identity </tspan><tspan x="12" y="46" dominant-baseline="ideographic">management system.</tspan></text></g></g></g><g id="g-root-tx_selectas_14651zckl5n9i-fill" data-item-order="0" transform="translate(278, 338)"><g id="tx_selectas_14651zckl5n9i-fill-merged" stroke="none" fill="#92bd39" fill-opacity="1"><g><text style="font: 20px Roboto, sans-serif; white-space: pre;" font-size="20px" font-family="Roboto, sans-serif"><tspan x="12" y="34" dominant-baseline="ideographic">Select Assurance Levels</tspan></text></g></g></g><g id="g-root-ic_1_1d30x8okll3pk-fill" data-item-order="0" transform="translate(602, 350)"></g><g id="g-root-tx_mapimpac_vai1qgkl5o27-fill" data-item-order="0" transform="translate(278, 374)"><g id="tx_mapimpac_vai1qgkl5o27-fill-merged" stroke="none" fill="#484848" fill-opacity="1"><g><text style="font: 15px Roboto, sans-serif; white-space: pre;" font-size="15px" font-family="Roboto, sans-serif"><tspan x="12" y="28" dominant-baseline="ideographic">Map impact levels to initial </tspan><tspan x="12" y="46" dominant-baseline="ideographic">assurance levels and controls.</tspan></text></g></g></g><g id="g-root-ic_sync_1d1s288kl47ie-fill" data-item-order="0" transform="translate(782, 134)"></g><g id="g-root-tx_2_18lyk3skl5mh9-fill" data-item-order="0" transform="translate(116, 446)"><g id="tx_2_18lyk3skl5mh9-fill-merged" stroke="none" fill="#3cc583" fill-opacity="1"><g><text style="font: 25px Roboto, sans-serif; white-space: pre;" font-size="25px" font-family="Roboto, sans-serif"><tspan x="14.97" y="42" dominant-baseline="ideographic">2</tspan></text></g></g></g><g id="g-root-tx_continuo_dbqc7ckl70uf-fill" data-item-order="0" transform="translate(458, 122)"><g id="tx_continuo_dbqc7ckl70uf-fill-merged" stroke="none" fill="#7f64ea" fill-opacity="1"><g><text style="font: 20px Roboto, sans-serif; white-space: pre;" font-size="20px" font-family="Roboto, sans-serif"><tspan x="12" y="34" dominant-baseline="ideographic">Continuous Evaluation</tspan></text></g></g></g><g id="g-root-tx_impactas_92s214kl5lvm-fill" data-item-order="0" transform="translate(188, 446)"><g id="tx_impactas_92s214kl5lvm-fill-merged" stroke="none" fill="#3cc583" fill-opacity="1"><g><text style="font: 20px Roboto, sans-serif; white-space: pre;" font-size="20px" font-family="Roboto, sans-serif"><tspan x="12" y="34" dominant-baseline="ideographic">Impact Assessment</tspan></text></g></g></g><g id="g-root-ic_man_1cy14jskll3im-fill" data-item-order="0" transform="translate(512, 458)"></g><g id="g-root-tx_determin_1usflmwkl5n9f-fill" data-item-order="0" transform="translate(188, 482)"><g id="tx_determin_1usflmwkl5n9f-fill-merged" stroke="none" fill="#484848" fill-opacity="1"><g><text style="font: 15px Roboto, sans-serif; white-space: pre;" font-size="15px" font-family="Roboto, sans-serif"><tspan x="12" y="28" dominant-baseline="ideographic">Determine the impact levels for </tspan><tspan x="12" y="46" dominant-baseline="ideographic">each user group.</tspan></text></g></g></g><g id="g-root-tx_5_1lqjuiwkl70nd-fill" data-item-order="0" transform="translate(386, 122)"><g id="tx_5_1lqjuiwkl70nd-fill-merged" stroke="none" fill="#7f64ea" fill-opacity="1"><g><text style="font: 25px Roboto, sans-serif; white-space: pre;" font-size="25px" font-family="Roboto, sans-serif"><tspan x="14.97" y="42" dominant-baseline="ideographic">5</tspan></text></g></g></g><g id="g-root-tx_establis_vcdgzskl5n2i-fill" data-item-order="0" transform="translate(98, 596)"><g id="tx_establis_vcdgzskl5n2i-fill-merged" stroke="none" fill="#484848" fill-opacity="1"><g><text style="font: 15px Roboto, sans-serif; white-space: pre;" font-size="15px" font-family="Roboto, sans-serif"><tspan x="12" y="28" dominant-baseline="ideographic">Establish the scope and user </tspan><tspan x="12" y="46" dominant-baseline="ideographic">groups for the online service.</tspan></text></g></g></g><g id="g-root-tx_achievin_1qehfm0klgu16-fill" data-item-order="0" transform="translate(248, 38)"><g id="tx_achievin_1qehfm0klgu16-fill-merged" stroke="none" fill="#484848" fill-opacity="1"><g><text style="font: bold 25px Roboto, sans-serif; white-space: pre;" font-weight="bold" font-size="25px" font-family="Roboto, sans-serif"><tspan x="16.79" y="42" dominant-baseline="ideographic">Achieving Digital Identity Assurance</tspan></text></g></g></g><g id="g-root-tx_definese_1480h8okl5m9t-fill" data-item-order="0" transform="translate(98, 560)"><g id="tx_definese_1480h8okl5m9t-fill-merged" stroke="none" fill="#4e88e7" fill-opacity="1"><g><text style="font: 20px Roboto, sans-serif; white-space: pre;" font-size="20px" font-family="Roboto, sans-serif"><tspan x="12" y="34" dominant-baseline="ideographic">Define Service</tspan></text></g></g></g><g id="g-root-ic_moni_1d30x8oklgvm3-fill" data-item-order="0" transform="translate(422, 566)"></g><g id="g-root-tx_1_vcdgzskl5n2j-fill" data-item-order="0" transform="translate(26, 560)"><g id="tx_1_vcdgzskl5n2j-fill-merged" stroke="none" fill="#4e88e7" fill-opacity="1"><g><text style="font: 25px Roboto, sans-serif; white-space: pre;" font-size="25px" font-family="Roboto, sans-serif"><tspan x="14.97" y="42" dominant-baseline="ideographic">1</tspan></text></g></g></g><g id="g-root-cp_0_g-0_1464ytkklgu8f-stroke" data-item-order="-559430" transform="translate(356, 158)"><g id="cp_0_g-0_1464ytkklgu8f-stroke" fill="none" stroke-linecap="round" stroke-linejoin="round" stroke-miterlimit="4" stroke="#a3a3a3" stroke-width="2" stroke-opacity="1"><g><path d="M 460 64L 550 10L 550 25.2042L 472 72.0089L 472 125.9996L 382 180.0119L 382 233.9815L 292 288.009L 292 342L 202 396.009L 202 450.1089L 100 511.6089L 10 457.6089L 10 442L 100 496L 190 442L 190 388L 280 334L 280 280L 370 226L 370 172.0029L 460 118L 460 64Z"></path></g></g><g id="cp_0_g-0_1464ytkklgu8f-stroke" fill="none" stroke-linecap="round" stroke-linejoin="round" stroke-miterlimit="4" stroke="#a3a3a3" stroke-width="2" stroke-opacity="1"><g><path d="M 460 64L 370 10L 370 64L 460 118L 460 64Z"></path></g></g><g id="cp_0_g-0_1464ytkklgu8f-stroke" fill="none" stroke-linecap="round" stroke-linejoin="round" stroke-miterlimit="4" stroke="#a3a3a3" stroke-width="2" stroke-opacity="1"><g><path d="M 370 172L 280 118L 280 172L 370 226L 370 172Z"></path></g></g><g id="cp_0_g-0_1464ytkklgu8f-stroke" fill="none" stroke-linecap="round" stroke-linejoin="round" stroke-miterlimit="4" stroke="#a3a3a3" stroke-width="2" stroke-opacity="1"><g><path d="M 280 280L 190 226L 190 280L 280 334L 280 280Z"></path></g></g><g id="cp_0_g-0_1464ytkklgu8f-stroke" fill="none" stroke-linecap="round" stroke-linejoin="round" stroke-miterlimit="4" stroke="#a3a3a3" stroke-width="2" stroke-opacity="1"><g><path d="M 190 388L 100 334L 100 389L 190 442L 190 388Z"></path></g></g></g><g id="g-root-cp_1_g-1_zqbgp4klgv0o-stroke" data-item-order="-559418" transform="translate(356, 536)"><g id="cp_1_g-1_zqbgp4klgv0o-stroke" fill="none" stroke-linecap="round" stroke-linejoin="round" stroke-miterlimit="4" stroke="#4e88e7" stroke-width="2" stroke-opacity="1"><g><path d="M 100 10L 10 64L 100 118L 190 64L 100 10ZM 29 64L 100 22L 171 64L 100 106L 29 64Z"></path></g></g></g><g id="g-root-cp_2_g-2_vahykoklgvsx-stroke" data-item-order="-559414" transform="translate(446, 428)"><g id="cp_2_g-2_vahykoklgvsx-stroke" fill="none" stroke-linecap="round" stroke-linejoin="round" stroke-miterlimit="4" stroke="#3cc583" stroke-width="2" stroke-opacity="1"><g><path d="M 100 10L 10 64L 100 118L 190 64L 100 10ZM 29 64L 100 22L 171 64L 100 106L 29 64Z"></path></g></g></g><g id="g-root-cp_3_g-3_vahykoklgvsy-stroke" data-item-order="-559410" transform="translate(536, 320)"><g id="cp_3_g-3_vahykoklgvsy-stroke" fill="none" stroke-linecap="round" stroke-linejoin="round" stroke-miterlimit="4" stroke="#92bd39" stroke-width="2" stroke-opacity="1"><g><path d="M 100 10L 10 64L 100 118L 190 64L 100 10ZM 29 64L 100 22L 171 64L 100 106L 29 64Z"></path></g></g></g><g id="g-root-cp_4_g-4_meuybsklgwln-stroke" data-item-order="-559406" transform="translate(626, 212)"><g id="cp_4_g-4_meuybsklgwln-stroke" fill="none" stroke-linecap="round" stroke-linejoin="round" stroke-miterlimit="4" stroke="#1eabda" stroke-width="2" stroke-opacity="1"><g><path d="M 100 10L 10 64L 100 118L 190 64L 100 10ZM 29 64L 100 22L 171 64L 100 106L 29 64Z"></path></g></g></g><g id="g-root-cp_5_g-5_hznxagklgu84-stroke" data-item-order="-559402" transform="translate(716, 104)"><g id="cp_5_g-5_hznxagklgu84-stroke" fill="none" stroke-linecap="round" stroke-linejoin="round" stroke-miterlimit="4" stroke="#7f64ea" stroke-width="2" stroke-opacity="1"><g><path d="M 100 10L 10 64L 100 118L 190 64L 100 10ZM 29 64L 100 22L 171 64L 100 106L 29 64Z"></path></g></g></g><g id="g-root-cp_2_text-2_hznxagklgu85-stroke" data-item-order="-559388" transform="translate(170, 446)"><g id="cp_2_text-2_hznxagklgu85-stroke" fill="none" stroke-linecap="round" stroke-linejoin="round" stroke-miterlimit="4" stroke="#3cc583" stroke-width="2" stroke-opacity="1"><g><path d="M 10 10L 16 10L 16 82L 10 82Z"></path></g></g></g><g id="g-root-cp_3_text-3_940x1kklgv0u-stroke" data-item-order="-559374" transform="translate(260, 338)"><g id="cp_3_text-3_940x1kklgv0u-stroke" fill="none" stroke-linecap="round" stroke-linejoin="round" stroke-miterlimit="4" stroke="#92bd39" stroke-width="2" stroke-opacity="1"><g><path d="M 10 10L 16 10L 16 82L 10 82Z"></path></g></g></g><g id="g-root-cp_1_text-1_4o7ex4klgvt3-stroke" data-item-order="-559360" transform="translate(80, 560)"><g id="cp_1_text-1_4o7ex4klgvt3-stroke" fill="none" stroke-linecap="round" stroke-linejoin="round" stroke-miterlimit="4" stroke="#4e88e7" stroke-width="2" stroke-opacity="1"><g><path d="M 10 10L 16 10L 16 82L 10 82Z"></path></g></g></g><g id="g-root-cp_4_text-4_8dwsoklgwlc-stroke" data-item-order="-559344" transform="translate(350, 230)"><g id="cp_4_text-4_8dwsoklgwlc-stroke" fill="none" stroke-linecap="round" stroke-linejoin="round" stroke-miterlimit="4" stroke="#1eabda" stroke-width="2" stroke-opacity="1"><g><path d="M 10 10L 16 10L 16 82L 10 82Z"></path></g></g></g><g id="g-root-cp_5_text-5_8dwsoklgwld-stroke" data-item-order="-559330" transform="translate(440, 122)"><g id="cp_5_text-5_8dwsoklgwld-stroke" fill="none" stroke-linecap="round" stroke-linejoin="round" stroke-miterlimit="4" stroke="#7f64ea" stroke-width="2" stroke-opacity="1"><g><path d="M 10 10L 16 10L 16 82L 10 82Z"></path></g></g></g><g id="g-root-tx_tailoras_qwjyvckl5nus-stroke" data-item-order="0" transform="translate(368, 230)"></g><g id="g-root-ic_proc_1cws9jckl2scr-stroke" data-item-order="0" transform="translate(692, 242)"><g id="ic_proc_1cws9jckl2scr-stroke" fill="none" stroke-linecap="round" stroke-linejoin="round" stroke-miterlimit="4" stroke="#1eabda" stroke-width="2" stroke-opacity="1"><g><path d="M 21 32L 21 38M 25 57L 26 45L 31 45L 31 38C 31 32.477154 26.522848 28 21 28C 15.477153 28 11 32.477154 11 38L 11 45L 16 45L 17 57ZM 23.334 18C 24.905506 18.001305 26.460918 17.683554 27.906 17.066C 27.525707 14.108422 25.302612 11.722239 22.379307 11.133867C 19.456003 10.545495 16.482872 11.885836 14.988 14.466C 17.17684 16.725311 20.188288 18.000467 23.334 18ZM 14 18C 14 21.865993 17.134007 25 21 25C 24.865993 25 28 21.865993 28 18C 28 14.134007 24.865993 11 21 11C 17.134007 11 14 14.134007 14 18ZM 36 35L 46 35M 46 17L 45 17C 42.790859 17 41 18.790861 41 21L 41 47C 41 49.209141 42.790859 51 45 51L 46 51M 50 18L 52 20L 57 16M 50 36L 52 38L 57 34M 50 48L 56 54M 56 48L 50 54"></path></g></g></g><g id="g-root-tx_conducta_hrjubskl7025-stroke" data-item-order="0" transform="translate(368, 266)"></g><g id="g-root-tx_4_dbqc7ckl70ue-stroke" data-item-order="0" transform="translate(296, 230)"></g><g id="g-root-tx_3_1hiuiiwkl5nuo-stroke" data-item-order="0" transform="translate(206, 338)"></g><g id="g-root-tx_evaluate_9tu0kl72fc-stroke" data-item-order="0" transform="translate(458, 158)"></g><g id="g-root-tx_selectas_14651zckl5n9i-stroke" data-item-order="0" transform="translate(278, 338)"></g><g id="g-root-ic_1_1d30x8okll3pk-stroke" data-item-order="0" transform="translate(602, 350)"><g id="ic_1_1d30x8okll3pk-stroke" fill="none" stroke-linecap="round" stroke-linejoin="round" stroke-miterlimit="4" stroke="#92bd39" stroke-width="2" stroke-opacity="1"><g><path d="M 44 31C 44 36.52285 39.52285 41 34 41C 28.477154 41 24 36.52285 24 31C 24 25.477154 28.477154 21 34 21M 30 30L 33.239998 32.43C 33.665909 32.749241 34.26725 32.678909 34.608002 32.27L 44 21M 13 17.549999L 13 32.823997C 13.120375 43.162281 19.686607 52.324169 29.438 55.759998L 31.68 56.588001C 33.177765 57.138031 34.822235 57.138031 36.32 56.587997L 38.562 55.759998C 48.313393 52.324169 54.879623 43.162281 54.999996 32.823997L 55 17.549999C 54.995892 16.323391 54.261108 15.217278 53.132 14.738C 47.073589 12.209308 40.564659 10.937597 34 11C 27.435341 10.937597 20.926413 12.209308 14.868 14.738C 13.738894 15.217278 13.004107 16.323391 13 17.549999Z"></path></g></g></g><g id="g-root-tx_mapimpac_vai1qgkl5o27-stroke" data-item-order="0" transform="translate(278, 374)"></g><g id="g-root-ic_sync_1d1s288kl47ie-stroke" data-item-order="0" transform="translate(782, 134)"><g id="ic_sync_1d1s288kl47ie-stroke" fill="none" stroke-linecap="round" stroke-linejoin="round" stroke-miterlimit="4" stroke="#7f64ea" stroke-width="2" stroke-opacity="1"><g><path d="M 13.796 44.995998L 29.002001 44.998001M 15.024 20.996L 52.992001 20.996M 31.002001 32.996002L 11.022 32.996002M 28 56.200001C 16.994537 53.211582 9.840749 42.61005 11.188299 31.285961C 12.535851 19.961874 21.977768 11.335209 33.377197 11.01294C 44.77663 10.690673 54.690838 18.77013 56.676003 30M 32.538002 11.048C 21.776001 22.709999 20.84 37.52 29.422001 52M 35.459999 11.048C 40.186485 15.957322 43.224304 22.245949 44.132 29M 40.001999 47L 33.001999 47L 33.001999 54M 55.835999 49.466C 54.146935 54.425861 49.230808 57.539207 44.024937 56.945862C 38.819065 56.352512 34.729622 52.212738 34.199997 47M 50.001999 43L 57.001999 43L 57.001999 36M 34.167999 40.534C 35.86018 35.578888 40.773819 32.470131 45.976215 33.063194C 51.178608 33.656254 55.266483 37.791161 55.799999 43"></path></g></g></g><g id="g-root-tx_2_18lyk3skl5mh9-stroke" data-item-order="0" transform="translate(116, 446)"></g><g id="g-root-tx_continuo_dbqc7ckl70uf-stroke" data-item-order="0" transform="translate(458, 122)"></g><g id="g-root-tx_impactas_92s214kl5lvm-stroke" data-item-order="0" transform="translate(188, 446)"></g><g id="g-root-ic_man_1cy14jskll3im-stroke" data-item-order="0" transform="translate(512, 458)"><g id="ic_man_1cy14jskll3im-stroke" fill="none" stroke-linecap="round" stroke-linejoin="round" stroke-miterlimit="4" stroke="#3cc583" stroke-width="2" stroke-opacity="1"><g><path d="M 17.700001 26.280001C 20.351929 29.050932 24.024555 30.612522 27.860001 30.6C 29.779863 30.600025 31.679213 30.205179 33.440002 29.440001M 16.52 30.6C 16.52 35.294418 20.325581 39.099998 25.02 39.099998C 29.71442 39.099998 33.52 35.294418 33.52 30.6C 33.52 25.905579 29.71442 22.1 25.02 22.1C 20.325581 22.1 16.52 25.905579 16.52 30.6M 11.02 56.099998C 11.02 48.368015 17.288013 42.100002 25.02 42.100002C 32.751987 42.100002 39.02 48.368015 39.02 56.100002ZM 25.02 46.099998L 25.02 51.099998M 35.02 21.16C 35.020004 26.1637 39.076302 30.220001 44.080002 30.220001C 49.083702 30.220001 53.140003 26.1637 53.140003 21.16C 53.140003 16.1563 49.083702 12.1 44.080002 12.1C 39.076302 12.1 35.020004 16.1563 35.020004 21.16M 57.02 34.099998L 50.52 27.6M 43.02 56.099998L 57.02 56.099998C 57.002491 52.279419 55.007313 48.740517 51.747448 46.747921C 48.487583 44.755329 44.428226 44.593399 41.02 46.32M 52.400002 36.099998C 52.175858 38.50798 50.633385 40.592434 48.396122 41.510731C 46.158859 42.429028 43.596752 42.029324 41.745514 40.473198C 39.894279 38.917068 39.060028 36.46183 39.580002 34.099998"></path></g></g></g><g id="g-root-tx_determin_1usflmwkl5n9f-stroke" data-item-order="0" transform="translate(188, 482)"></g><g id="g-root-tx_5_1lqjuiwkl70nd-stroke" data-item-order="0" transform="translate(386, 122)"></g><g id="g-root-tx_establis_vcdgzskl5n2i-stroke" data-item-order="0" transform="translate(98, 596)"></g><g id="g-root-tx_achievin_1qehfm0klgu16-stroke" data-item-order="0" transform="translate(248, 38)"></g><g id="g-root-tx_definese_1480h8okl5m9t-stroke" data-item-order="0" transform="translate(98, 560)"></g><g id="g-root-ic_moni_1d30x8oklgvm3-stroke" data-item-order="0" transform="translate(422, 566)"><g id="ic_moni_1d30x8oklgvm3-stroke" fill="none" stroke-linecap="round" stroke-linejoin="round" stroke-miterlimit="4" stroke="#4e88e7" stroke-width="2" stroke-opacity="1"><g><path d="M 33.5 31.959999L 42.5 22.959999M 43.68 15.780001C 42.92392 16.531593 42.499157 17.553911 42.5 18.619999L 42.5 22.959999L 47.84 22.959999C 48.90609 22.960846 49.928406 22.536079 50.68 21.779999L 55.5 16.959999L 48.5 16.959999L 48.5 10.96ZM 39.5 56.959999L 27.5 56.959999C 29.217556 54.620441 30.255709 51.852032 30.5 48.959999L 36.5 48.959999C 36.756348 51.849304 37.793324 54.614571 39.5 56.959999ZM 24.540001 57.040001L 43.5 56.959999M 12.5 42.959999L 54.5 42.959999M 54.5 26.959999L 54.5 46C 54.5 47.656857 53.156857 49 51.5 49L 15.5 49C 13.843145 49 12.5 47.656857 12.5 46L 12.5 20C 12.5 18.343147 13.843145 17 15.5 17L 34.34 17M 26.5 31.959999C 26.500002 35.825996 29.634008 38.959999 33.5 38.959999C 37.365993 38.959999 40.5 35.825996 40.5 31.960001C 40.5 28.094007 37.365993 24.960001 33.5 24.960001C 29.634008 24.960001 26.500002 28.094007 26.500002 31.960001"></path></g></g></g><g id="g-root-tx_1_vcdgzskl5n2j-stroke" data-item-order="0" transform="translate(26, 560)"></g></g></g><path id="whz13k8lz50jn" d="M65.283 12.757a.35.35 0 0 0 .584.157l5.203-5.141-6.183 3.523.396 1.461zm-2.216-11.7a.35.35 0 0 0-.522.305v3.111l3.276-1.868-2.754-1.548zm3.728 2.105l-4.25 2.421v2.445l6.391-3.644-2.141-1.222zm4.708 3.303a.35.35 0 0 0 0-.609l-1.592-.9-7.365 4.199v1.782a.35.35 0 0 0 .523.305l8.435-4.777z M44.542 2.513c0-.433.355-.783.792-.783s.792.35.792.783-.355.783-.792.783-.792-.35-.792-.783zm59.171 0c0-.433.355-.783.792-.783s.792.35.792.783-.355.783-.792.783-.792-.35-.792-.783zm-85.951 7.636h-1.27v-.487c-.276.201-.864.609-1.881.609-1.202 0-2.274-.794-2.137-2.078.118-1.106 1.153-1.584 1.848-1.727l2.17-.345c0-.539-.29-.956-1.064-1.006s-1.21.305-1.571 1.017l-1.124-.605c1.218-2.631 5.029-1.764 5.029.414v4.207zm-1.27-2.86c.006.396-.062 1.112-.819 1.59-.587.37-1.841.299-1.903-.395-.049-.555.461-.791.906-.898l1.816-.297zm72.662 2.86h-1.27v-.487c-.276.201-.864.609-1.881.609-1.202 0-2.274-.794-2.137-2.078.118-1.106 1.153-1.584 1.848-1.727l2.17-.345c0-.539-.29-.956-1.064-1.006s-1.21.305-1.571 1.017l-1.124-.605c1.218-2.631 5.029-1.764 5.029.414v4.207zm-1.27-2.86c.006.396-.062 1.112-.82 1.59-.587.37-1.841.299-1.903-.395-.049-.555.461-.791.906-.898l1.816-.297zM99.096 10.149H97.85v-8.45h1.246v4.895l2.68-2.559h1.738l-2.633 2.535 2.715 3.578h-1.556l-2.077-2.707-.867.844v1.863zm6.053-6.114h-1.255v6.113h1.255V4.035zm-59.2 0h-1.255v6.113h1.255V4.035zm5.584 6.113V1.697h1.255v2.695c.361-.346 1-.485 1.47-.485 1.452 0 2.477 1.082 2.457 2.448v3.792h-1.27v-3.68c0-.408-.214-1.339-1.315-1.339-.968 0-1.342.756-1.342 1.339v3.681h-1.255zm-4.76-4.894V4.039h.621a.45.45 0 0 0 .45-.45v-.855h1.251v1.305h1.309v1.215h-1.309v3.109c0 .293.105.664.648.664.365 0 .531-.035.736-.07v1.137s-.361.113-.857.113c-1.398 0-1.777-1.051-1.777-1.788V5.254h-1.071zM36.528 4.039h-1.394l2.191 6.106h1.125l1.234-3.918 1.238 3.918h1.129l2.188-6.106h-1.383l-1.359 3.93-1.256-3.93h-1.124l-1.242 3.957-1.348-3.957zM26.212 7.141c-.02 1.566 1.187 3.129 3.223 3.129 1.566 0 2.383-.918 2.734-1.719L31.172 8c-.315.399-.801 1.094-1.738 1.094-1.145 0-1.825-.781-1.891-1.52h4.625c.074-.284.148-.995-.03-1.559-.336-1.064-1.221-2.102-2.839-2.102s-3.088 1.152-3.088 3.227zm1.363-.75h3.348c-.055-.43-.566-1.301-1.623-1.301a1.79 1.79 0 0 0-1.725 1.301zm-8.758.75c.038 1.758 1.277 3.133 3.145 3.133 1.074 0 1.723-.477 1.961-.672v.547h1.242V1.703h-1.258v2.888c-.414-.36-1.062-.68-1.93-.68-1.91 0-3.198 1.473-3.16 3.23zm1.309-.08c0 1.119.723 1.978 1.836 1.978a1.88 1.88 0 0 0 1.94-1.904c0-1.371-1.011-1.99-1.972-1.99s-1.805.798-1.805 1.916zm76.683-.028C96.771 5.275 95.532 3.9 93.664 3.9c-1.074 0-1.723.477-1.961.672v-.547h-1.242v8.22h1.258V9.583c.414.36 1.063.68 1.93.68 1.91 0 3.198-1.473 3.16-3.23zm-1.309.08c0-1.119-.723-1.978-1.836-1.978a1.88 1.88 0 0 0-1.94 1.904c0 1.371 1.011 1.99 1.972 1.99S95.5 8.231 95.5 7.113zM106.441 10.173V4.036h1.254v.382c.361-.346 1-.485 1.47-.485 1.452 0 2.477 1.082 2.457 2.448v3.792h-1.27V6.492c0-.408-.214-1.339-1.315-1.339-.969 0-1.342.756-1.342 1.339v3.681h-1.254zm-30.383-.021V1.824h1.084l4.215 5.777V1.824h1.32v8.328h-1.094l-4.207-5.796v5.796h-1.319zM5.24 10.149H4V2.377h1.014l2.664 3.597 2.654-3.592h1.03v7.766h-1.256V4.762L7.678 8.068 5.24 4.742v5.407z" transform="translate(800, 692)" fill="#80808088" stroke="none"></path></svg>